<?xml version="1.0" encoding="utf-8"?>
<!-- Generator: Adobe Illustrator 27.7.0, SVG Export Plug-In . SVG Version: 6.00 Build 0)  -->
<svg version="1.1" id="Layer_1" xmlns="http://www.w3.org/2000/svg" xmlns:xlink="http://www.w3.org/1999/xlink" x="0px" y="0px"
	 viewBox="0 0 16 16" style="enable-background:new 0 0 16 16;" xml:space="preserve">
<style type="text/css">
	.st0{fill-rule:evenodd;clip-rule:evenodd;fill:#6F4199;}
</style>
<path class="st0" d="M7.2,0.8C7.7,0.3,8,0,8,0c0.1,0.4,0.2,0.7,0.4,1c0.8,1.9,2.1,3.3,3.2,4.6C12.9,7.1,14,8.3,14,10
	c0,3.3-2.7,6-6,6s-6-2.7-6-6C2,6.7,5.6,2.5,7.2,0.8z M7.6,1.8C7,2.5,6.4,3.2,5.8,4c-0.7,1-1.4,2-2,3.1C3.3,8.1,3,9.1,3,10
	c0,2.8,2.2,5,5,5s5-2.2,5-5c0-1.2-0.8-2.2-2.2-3.7l0,0C9.8,5.1,8.5,3.7,7.6,1.8L7.6,1.8z"/>
<path class="st0" d="M4.6,7.8C5.4,6.1,6.3,5,6.6,4.6l0.7,0.7C7.1,5.6,6.2,6.7,5.4,8.2L4.6,7.8z"/>
</svg>
