<?xml version="1.0" encoding="utf-8"?>
<!-- Generator: Adobe Illustrator 27.7.0, SVG Export Plug-In . SVG Version: 6.00 Build 0)  -->
<svg version="1.1" id="Layer_1" xmlns="http://www.w3.org/2000/svg" xmlns:xlink="http://www.w3.org/1999/xlink" x="0px" y="0px"
	 viewBox="0 0 16 16" style="enable-background:new 0 0 16 16;" xml:space="preserve">
<style type="text/css">
	.st0{fill:#6F4199;}
</style>
<path class="st0" d="M6.2,1.2c0.5-1,1.6-1.5,2.6-1c0.4,0.2,0.8,0.6,1,1c0.9-0.6,2.1-0.5,2.8,0.4C12.9,2,13,2.5,13,3
	c1.1-0.1,2.1,0.7,2.2,1.8c0.1,0.5-0.1,1-0.4,1.4c1,0.5,1.5,1.6,1,2.6c-0.2,0.4-0.6,0.8-1,1c0.6,0.9,0.5,2.1-0.4,2.8
	C14,12.9,13.5,13,13,13c0.1,1.1-0.7,2.1-1.8,2.2c-0.5,0.1-1-0.1-1.4-0.4c-0.5,1-1.6,1.5-2.6,1c-0.4-0.2-0.8-0.6-1-1
	c-0.9,0.6-2.1,0.5-2.8-0.4C3.1,14,3,13.5,3,13c-1.1,0.1-2.1-0.7-2.2-1.8c-0.1-0.5,0.1-1,0.4-1.4c-1-0.5-1.5-1.6-1-2.6
	c0.2-0.4,0.6-0.8,1-1C0.5,5.3,0.7,4,1.6,3.4C2,3.1,2.5,3,3,3C2.9,1.9,3.7,0.9,4.8,0.8C5.3,0.8,5.8,0.9,6.2,1.2z M8,1
	C7.4,1,7,1.4,7,2c0,0,0,0,0,0l0,0.1c0,0.1,0,0.2,0.1,0.3c0,0.2,0.1,0.5,0.2,0.9C7.5,4,7.7,4.8,8,5.6l0,0.1l0-0.1
	C8.3,4.8,8.5,4,8.7,3.3C8.8,3,8.9,2.7,8.9,2.4C9,2.3,9,2.2,9,2l0,0C9,1.4,8.6,1,8,1z M2,9L2,9l0.1,0c0.1,0,0.2,0,0.3-0.1
	c0.2,0,0.5-0.1,0.9-0.2C4.1,8.5,4.9,8.3,5.6,8l0.1,0L5.6,8C4.9,7.7,4.1,7.5,3.3,7.3C3,7.2,2.7,7.1,2.4,7.1C2.3,7,2.2,7,2,7l0,0
	C1.4,7,1,7.4,1,8S1.4,9,2,9z M9,14L9,14c0-0.2,0-0.3-0.1-0.4c-0.1-0.3-0.1-0.6-0.2-0.9c-0.2-0.8-0.4-1.5-0.7-2.3l0-0.1l0,0.1
	c-0.2,0.8-0.5,1.6-0.7,2.3c-0.1,0.3-0.2,0.6-0.2,0.9C7,13.7,7,13.8,7,14l0,0c0,0.6,0.4,1,1,1S9,14.6,9,14z M3.3,11.9L3.3,11.9
	c0.1-0.1,0.2-0.2,0.3-0.3C3.8,11.4,4,11.2,4.3,11C4.9,10.4,5.4,9.8,6,9.2l0.1-0.1l-0.1,0C5.1,9.3,4.4,9.5,3.6,9.7
	C3.2,9.8,2.9,9.9,2.7,10c-0.1,0-0.2,0.1-0.4,0.1l0,0c-0.5,0.3-0.6,0.9-0.4,1.4S2.8,12.1,3.3,11.9C3.3,11.9,3.3,11.9,3.3,11.9
	L3.3,11.9z M4.5,14.1c0.5,0.3,1.1,0.1,1.4-0.4l0,0c0,0,0,0,0-0.1C6,13.5,6,13.4,6,13.3c0.1-0.2,0.2-0.5,0.3-0.9
	c0.2-0.8,0.4-1.6,0.6-2.3l0-0.1L6.8,10c-0.6,0.5-1.2,1.1-1.7,1.7c-0.2,0.2-0.4,0.4-0.6,0.7c-0.1,0.1-0.2,0.2-0.2,0.3l0,0
	C3.9,13.2,4,13.8,4.5,14.1z M13.7,5.9c0.5-0.3,0.6-0.9,0.4-1.4c-0.3-0.5-0.9-0.6-1.4-0.4l0,0c-0.1,0.1-0.2,0.2-0.3,0.2
	c-0.2,0.2-0.4,0.4-0.7,0.6c-0.6,0.6-1.1,1.2-1.7,1.7L9.9,6.9l0.1,0c0.8-0.2,1.6-0.4,2.3-0.6c0.3-0.1,0.6-0.2,0.9-0.3
	C13.4,6,13.5,5.9,13.7,5.9C13.7,5.9,13.7,5.9,13.7,5.9z M11.5,1.9c-0.5-0.3-1.1-0.1-1.4,0.4l0,0c0,0,0,0,0,0.1C10,2.5,10,2.6,10,2.7
	C9.9,2.9,9.8,3.2,9.7,3.6C9.5,4.3,9.3,5.1,9.2,5.9l0,0.1L9.2,6c0.6-0.5,1.2-1.1,1.7-1.7c0.3-0.3,0.5-0.5,0.6-0.7
	c0.1-0.1,0.2-0.2,0.2-0.3l0,0C12.1,2.8,12,2.2,11.5,1.9z M14,9c0.6,0,1-0.4,1-1s-0.4-1-1-1l0,0c-0.1,0-0.3,0-0.4,0.1
	c-0.2,0-0.5,0.1-0.9,0.2C12,7.5,11.2,7.7,10.4,8l-0.1,0l0.1,0c0.8,0.2,1.6,0.5,2.3,0.7c0.3,0.1,0.6,0.2,0.9,0.2C13.7,9,13.8,9,14,9
	L14,9z M1.9,4.5C1.7,5,1.8,5.6,2.3,5.9c0,0,0,0,0,0l0.1,0C2.5,5.9,2.6,6,2.7,6c0.2,0.1,0.5,0.2,0.9,0.3c0.8,0.2,1.6,0.4,2.3,0.6
	l0.1,0L6,6.8C5.4,6.2,4.9,5.6,4.3,5C4.1,4.8,3.9,4.6,3.6,4.4C3.5,4.3,3.4,4.2,3.3,4.2l0,0C2.8,3.9,2.2,4,1.9,4.5z M4.1,3.3L4.1,3.3
	c0.1,0.1,0.2,0.2,0.3,0.3C4.6,3.8,4.8,4,5,4.3C5.6,4.9,6.2,5.4,6.8,6l0.1,0.1l0-0.1C6.7,5.1,6.5,4.3,6.3,3.6C6.2,3.2,6.1,2.9,6,2.7
	c0-0.1-0.1-0.2-0.1-0.4l0,0C5.6,1.8,5,1.7,4.5,1.9S3.9,2.8,4.1,3.3C4.1,3.3,4.1,3.3,4.1,3.3z M14.1,11.5c0.3-0.5,0.1-1.1-0.4-1.4
	l0,0c-0.1-0.1-0.2-0.1-0.4-0.1c-0.2-0.1-0.5-0.2-0.9-0.3c-0.8-0.2-1.6-0.4-2.3-0.6l-0.1,0L10,9.2c0.5,0.6,1.1,1.2,1.7,1.7
	c0.3,0.3,0.5,0.5,0.7,0.6c0.1,0.1,0.2,0.2,0.3,0.2l0,0C13.2,12.1,13.8,12,14.1,11.5z M10.1,13.7c0.3,0.5,0.9,0.6,1.4,0.4
	c0.5-0.3,0.6-0.9,0.4-1.4l0,0c-0.1-0.1-0.2-0.2-0.2-0.3c-0.2-0.2-0.4-0.4-0.6-0.7c-0.6-0.6-1.2-1.1-1.7-1.7L9.1,9.9l0,0.1
	c0.2,0.8,0.4,1.6,0.6,2.3c0.1,0.3,0.2,0.6,0.3,0.9C10,13.4,10.1,13.5,10.1,13.7C10.1,13.7,10.1,13.7,10.1,13.7z M8,9.5
	c0.8,0,1.5-0.7,1.5-1.5S8.8,6.5,8,6.5S6.5,7.2,6.5,8S7.2,9.5,8,9.5z"/>
</svg>
