<?xml version="1.0" encoding="utf-8"?>
<!-- Generator: Adobe Illustrator 27.7.0, SVG Export Plug-In . SVG Version: 6.00 Build 0)  -->
<svg version="1.1" id="Layer_1" xmlns="http://www.w3.org/2000/svg" xmlns:xlink="http://www.w3.org/1999/xlink" x="0px" y="0px"
	 viewBox="0 0 16 16" style="enable-background:new 0 0 16 16;" xml:space="preserve">
<style type="text/css">
	.st0{fill:#6F4199;}
</style>
<path class="st0" d="M8.1,9.6c0.3,0,0.5-0.2,0.6-0.6c0-0.5,0.2-0.8,0.8-1.3c0.7-0.5,1-1.1,1-2c0-1.3-0.9-2.2-2.3-2.2
	c-1,0-1.8,0.5-2.1,1.3C6,5,6,5.2,6,5.5c0,0.4,0.2,0.6,0.5,0.6C6.8,6.1,7,6,7.1,5.6C7.3,5,7.6,4.7,8.2,4.7c0.6,0,1,0.4,1,1.1
	c0,0.6-0.2,0.9-0.8,1.3C7.8,7.5,7.5,8,7.5,8.7v0.1C7.5,9.3,7.7,9.6,8.1,9.6z"/>
<path class="st0" d="M10.3,2.5L9.4,1.6l0.7-0.7l0.6,0.6l0.9,0c1.6,0,2.9,1.3,2.9,2.9c0,0,0,0,0,0.1l0,0.9l0.6,0.6
	c1.1,1.1,1.2,2.9,0,4.1c0,0,0,0,0,0l-0.6,0.6l0,0.9c0,1.6-1.3,2.9-2.9,2.9c0,0,0,0-0.1,0l-0.9,0l-0.6,0.6c-1.1,1.1-2.9,1.2-4.1,0
	c0,0,0,0,0,0l-0.6-0.6l-0.9,0c-1.6,0-2.9-1.3-2.9-2.9c0,0,0,0,0-0.1l0-0.9l-0.6-0.6C-0.3,9-0.3,7.1,0.8,6c0,0,0,0,0,0l0.6-0.6l0-0.9
	c0-1.6,1.3-2.9,2.9-2.9c0,0,0,0,0.1,0l0.9,0l0.6-0.6C7-0.3,8.9-0.3,10,0.8c0,0,0,0,0,0L9.4,1.6c-0.7-0.7-1.9-0.8-2.7,0c0,0,0,0,0,0
	L5.7,2.5l-1.3,0c-1,0-1.9,0.8-1.9,1.9c0,0,0,0,0,0l0,1.3L1.6,6.6c-0.7,0.7-0.8,1.9,0,2.7c0,0,0,0,0,0l0.9,0.9l0,1.3
	c0,1,0.8,1.9,1.9,1.9c0,0,0,0,0,0l1.3,0l0.9,0.9c0.7,0.7,1.9,0.8,2.7,0c0,0,0,0,0,0l0.9-0.9l1.3,0c1,0,1.9-0.8,1.9-1.9c0,0,0,0,0,0
	l0-1.3l0.9-0.9c0.7-0.7,0.8-1.9,0-2.7c0,0,0,0,0,0l-0.9-0.9l0-1.3c0-1-0.8-1.9-1.9-1.9c0,0,0,0,0,0C11.6,2.5,10.3,2.5,10.3,2.5z"/>
<path class="st0" d="M7,11c0-0.6,0.4-1,1-1c0.6,0,1,0.4,1,1c0,0,0,0,0,0c0,0.6-0.4,1-1,1S7,11.6,7,11z"/>
</svg>
