<?xml version="1.0" encoding="utf-8"?>
<!-- Generator: Adobe Illustrator 27.7.0, SVG Export Plug-In . SVG Version: 6.00 Build 0)  -->
<svg version="1.1" id="Layer_1" xmlns="http://www.w3.org/2000/svg" xmlns:xlink="http://www.w3.org/1999/xlink" x="0px" y="0px"
	 viewBox="0 0 16 16" style="enable-background:new 0 0 16 16;" xml:space="preserve">
<style type="text/css">
	.st0{fill:#6F4199;}
</style>
<path class="st0" d="M14.8,0.1C14.9,0.2,15,0.3,15,0.5v15c0,0.3-0.2,0.5-0.5,0.5h-3c-0.3,0-0.5-0.2-0.5-0.5V14h-1v1.5
	c0,0.3-0.2,0.5-0.5,0.5h-9C0.2,16,0,15.8,0,15.5V10c0-0.2,0.1-0.4,0.3-0.5L6,7.6V4.5c0-0.2,0.1-0.4,0.3-0.4l8-4
	C14.4,0,14.6,0,14.8,0.1z M6,8.7l-5,1.7V15h5V8.7z M7,15h2v-1.5C9,13.2,9.2,13,9.5,13h2c0.3,0,0.5,0.2,0.5,0.5V15h2V1.3L7,4.8V15z"
	/>
<path class="st0" d="M2,11h1v1H2V11z M4,11h1v1H4V11z M2,13h1v1H2V13z M4,13h1v1H4V13z M8,9h1v1H8V9z M10,9h1v1h-1V9z M8,11h1v1H8
	V11z M10,11h1v1h-1V11z M12,9h1v1h-1V9z M12,11h1v1h-1V11z M8,7h1v1H8V7z M10,7h1v1h-1V7z M12,7h1v1h-1V7z M8,5h1v1H8V5z M10,5h1v1
	h-1V5z M12,5h1v1h-1V5z M12,3h1v1h-1V3z"/>
</svg>
