<?xml version="1.0" encoding="utf-8"?>
<!-- Generator: Adobe Illustrator 27.7.0, SVG Export Plug-In . SVG Version: 6.00 Build 0)  -->
<svg version="1.1" id="Layer_1" xmlns="http://www.w3.org/2000/svg" xmlns:xlink="http://www.w3.org/1999/xlink" x="0px" y="0px"
	 viewBox="0 0 16 16" style="enable-background:new 0 0 16 16;" xml:space="preserve">
<style type="text/css">
	.st0{fill:#6F4199;}
</style>
<path class="st0" d="M2,6c0-3.3,2.7-6,6-6s6,2.7,6,6c0,1.6-0.7,3.2-1.8,4.3c-0.2,0.2-0.4,0.4-0.5,0.6L11,12.7
	c-0.1,0.2-0.3,0.3-0.5,0.3c0.3,0,0.5,0.2,0.5,0.5S10.8,14,10.5,14c0.3,0,0.5,0.2,0.5,0.5S10.8,15,10.5,15l-0.2,0.4
	C10.1,15.8,9.8,16,9.4,16H6.6c-0.4,0-0.7-0.2-0.9-0.6L5.5,15C5.2,15,5,14.8,5,14.5S5.2,14,5.5,14C5.2,14,5,13.8,5,13.5
	S5.2,13,5.5,13c-0.2,0-0.4-0.1-0.5-0.3l-0.8-1.8c-0.1-0.2-0.3-0.4-0.5-0.6C2.7,9.2,2,7.6,2,6z M8,1C5.2,1,3,3.2,3,6
	c0,1.4,0.5,2.7,1.5,3.6c0.3,0.3,0.5,0.6,0.7,0.9L5.8,12h4.3l0.6-1.5c0.2-0.4,0.4-0.7,0.7-0.9c2-1.9,2-5.1,0.1-7.1
	C10.7,1.5,9.4,1,8,1z"/>
</svg>
