<?xml version="1.0" encoding="utf-8"?>
<!-- Generator: Adobe Illustrator 27.7.0, SVG Export Plug-In . SVG Version: 6.00 Build 0)  -->
<svg version="1.1" id="Layer_1" xmlns="http://www.w3.org/2000/svg" xmlns:xlink="http://www.w3.org/1999/xlink" x="0px" y="0px"
	 viewBox="0 0 16 16" style="enable-background:new 0 0 16 16;" xml:space="preserve">
<style type="text/css">
	.st0{fill:#6F4199;}
</style>
<path class="st0" d="M8.4,0.2C8.3,0,8-0.1,7.7,0.1c-0.1,0-0.1,0.1-0.1,0.1l-3,4.5C4.4,5,4.5,5.3,4.7,5.4C4.8,5.5,4.9,5.5,5,5.5h0.1
	l-2,3.2C2.9,9,3,9.3,3.2,9.4c0.1,0,0.2,0.1,0.3,0.1h0.2l-1.6,3.3c-0.1,0.2,0,0.5,0.2,0.7c0.1,0,0.1,0.1,0.2,0.1H7V16h2v-2.5h4.5
	c0.3,0,0.5-0.2,0.5-0.5c0-0.1,0-0.2-0.1-0.2l-1.6-3.3h0.2C12.8,9.5,13,9.3,13,9c0-0.1,0-0.2-0.1-0.3l-2-3.2H11
	c0.3,0,0.5-0.2,0.5-0.5c0-0.1,0-0.2-0.1-0.3C11.4,4.7,8.4,0.2,8.4,0.2z M6.4,4.8C6.3,4.6,6.2,4.5,6,4.5H5.9L8,1.4l2.1,3.1H10
	C9.7,4.5,9.5,4.7,9.5,5c0,0.1,0,0.2,0.1,0.3l2,3.2h-0.1C11.2,8.5,11,8.7,11,9c0,0.1,0,0.2,0.1,0.2l1.6,3.3H3.3l1.6-3.3
	C5.1,9,5,8.7,4.7,8.6c-0.1,0-0.1-0.1-0.2-0.1H4.4l2-3.2C6.5,5.1,6.5,4.9,6.4,4.8z"/>
</svg>
