<?xml version="1.0" encoding="utf-8"?>
<!-- Generator: Adobe Illustrator 27.7.0, SVG Export Plug-In . SVG Version: 6.00 Build 0)  -->
<svg version="1.1" xmlns="http://www.w3.org/2000/svg" xmlns:xlink="http://www.w3.org/1999/xlink" x="0px" y="0px"
	 viewBox="0 0 1920 1080" style="enable-background:new 0 0 1920 1080;" xml:space="preserve">
<style type="text/css">
	.st0{fill:#90161D;}
	.st1{fill:#346702;}
	.st2{fill:#E0C2C2;}
	.st3{fill:#340300;}
	.st4{fill:#59B948;}
	.st5{fill:#366903;}
	.st6{fill:#670300;}
	.st7{fill:#9B0403;}
	.st8{fill:#346602;}
	.st9{fill:#386A05;}
	.st10{fill:#9A6868;}
	.st11{fill:#CD9A9A;}
	.st12{fill:#FDFCFB;}
	.st13{fill:#6F4199;}
	.st14{fill:#366902;}
	.st15{fill:#669900;}
	.st16{fill:#996666;}
	.st17{fill:#F49420;}
	.st18{fill:#FFFFFF;}
	.st19{fill:#FFFFFF;stroke:#90161D;stroke-width:4;stroke-miterlimit:10;}
	.st20{fill:#FFFFFF;stroke:#FFFFFF;stroke-width:4;stroke-miterlimit:10;}
	.st21{fill:#F49420;stroke:#F49420;stroke-width:7;stroke-miterlimit:10;}
	.st22{fill:#FFFFFF;stroke:#000000;stroke-width:8;stroke-miterlimit:10;}
	.st23{fill:#FFFFFF;stroke:#000000;stroke-width:11;stroke-miterlimit:10;}
	.st24{stroke:#000000;stroke-width:2;stroke-miterlimit:10;}
	.st25{fill:none;}
	.st26{display:none;}
	.st27{display:none;fill:#F49420;}
	.st28{fill:#DDDDDC;}
</style>
<g id="flowers">
	<g>
		<path class="st0" d="M1186.9,577.5c-0.1,0-0.2-0.1-0.3-0.1c-1.2,0-2.3-0.1-3.5-0.1c-1.7-0.1-3.4-0.2-5.1-0.3
			c-1.7-0.1-3.5-0.3-5.2-0.5c-0.6-0.1-1.2-0.1-1.8-0.1c-0.9-0.1-1.8-0.1-2.7-0.2c-0.2,0-0.4-0.3-0.4-0.4c-0.6-1.9-1.2-3.9-1.7-5.9
			c-0.7-2.3-1.3-4.5-2-6.8c-0.6-2.1-1.2-4.1-1.8-6.2c0-0.1-0.1-0.3-0.1-0.4c1.4,0.3,2.7,0.5,4.1,0.8c0.1,0.1,0.2,0.3,0.3,0.4
			c0.5,0.6,0.9,1.1,1.4,1.7c-0.1,0.1-0.2,0.3-0.3,0.4c-0.4,0.3-0.8,0.6-1.2,0.9c-0.6,0.5-1.2,0.9-1.8,1.4c0.3,0.2,0.5,0.4,0.7,0.5
			c2.9,1.5,5.7,3,8.6,4.4c0.2,0.1,0.5,0.1,0.7,0c0.4-0.2,0.8-0.5,1.2-0.7c1.3,0.8,2.5,1.6,3.8,2.2c1.4,0.7,2.8,1.2,4.2,1.8
			c0.6,0.2,1.1,0.4,1.7,0.6c-0.1,0.1-0.2,0.3-0.4,0.4c-0.6,0.4-1.2,0.7-1.9,1.1c0.8,0.5,1.5,0.8,2.2,1.3c1.6,1,3.3,1.9,4.9,2.9
			c0.3,0.2,0.5,0.2,0.9,0c1.3-0.8,2.6-1.6,3.9-2.4c0.3-0.2,0.6-0.4,0.8-0.5c0.2,0,0.4,0,0.6,0.1c1.1,0.2,2.1,0.5,3.2,0.7
			c1.1,0.2,2.3,0.4,3.4,0.6c0.8,0.4,1.5,0.8,2.3,1.2c0.4,0.2,0.7,0.3,1.1,0.1c0.3-0.2,0.8-0.4,1.1-0.6c1.4,0.2,2.7,0.4,4.1,0.6
			c0.4,0.1,0.9,0.2,1.3,0.3c-1.8,0.2-3.7,0.4-5.5,0.5c-0.7,0.1-1.4,0.1-2.1,0.1c-2.4,0.1-4.7,0.1-7.1,0.2c-1.5,0-3.1,0-4.6,0
			c-0.1,0-0.2,0.1-0.3,0.1c-0.6,0-1.2,0-1.7,0c-0.8,0-1.6-0.1-2.3-0.1c-0.2,0-0.3,0.1-0.5,0.1
			C1188.2,577.5,1187.6,577.5,1186.9,577.5z M1167.3,572.4c1.2,0.6,2.4,1.3,3.6,1.9c1.4,0.7,2.8,1.4,4.3,2.1
			c0.3,0.1,0.5,0.1,0.7-0.1c1.7-1.1,3.5-2.2,5.2-3.3c0.4-0.2,0.7-0.5,1.2-0.7c-0.1-0.1-0.2-0.1-0.2-0.2c-1-0.6,0.1,1.5-0.9,0.9
			c-1.2,5.1-9.9,4.4-11.7-2.1c-0.3-0.2,4.5-3.2,4.2-3c-0.3,0.3-0.7,0.5-1,0.8c-1.7,1.2-3.4,2.3-5.1,3.5
			C1167.4,572.3,1167.4,572.3,1167.3,572.4z"/>
		<path class="st1" d="M1144.8,483.2c0.4,0.1,0.9,0.3,1.3,0.4c0.3,0.1,0.6,0.2,0.8,0.3c0.2,1,0.3,2,0.5,3c0.4,1.9,0.8,3.8,1.6,5.6
			c0.1,2,1.1,3.5,2.4,5c-0.3,0-0.5,0-0.6,0c-0.8-1.1-1.6-2.2-2.3-3.3c-0.2-0.3-0.3-0.5-0.5-0.8c0-0.1,0-0.1,0-0.1
			c-1.1-2-1.8-4.2-2.4-6.4c-0.2-1.1-0.4-2.1-0.7-3.2c0-0.1-0.1-0.1-0.1-0.2C1144.8,483.4,1144.8,483.3,1144.8,483.2z"/>
		<path class="st2" d="M1193.5,577.5c0.1,0,0.2-0.1,0.3-0.1c1.5,0,3.1,0,4.6,0c0,0,0,0.1,0,0.1
			C1196.8,577.5,1195.2,577.5,1193.5,577.5z"/>
		<path class="st2" d="M1189.3,441.8C1189.3,441.8,1189.3,441.7,1189.3,441.8c1.2-0.1,2.5-0.1,3.7-0.1c0,0,0,0.1,0,0.1
			C1191.8,441.8,1190.6,441.8,1189.3,441.8z"/>
		<path class="st2" d="M1188.9,577.5c0.2,0,0.3-0.1,0.5-0.1c0.8,0,1.6,0.1,2.3,0.1C1190.8,577.5,1189.9,577.5,1188.9,577.5z"/>
		<path d="M1189.3,441.8c1.2,0,2.5,0,3.7,0c1.4,0.2,2.8,0.2,4.1,0.5c2.9,0.7,5.8,1.4,8.5,2.8c1.8,0.9,3.5,1.8,5.2,2.9
			c1.4,0.8,2.6,1.8,3.9,2.8c1.2,0.9,2.3,1.9,3.3,2.9c1.7,1.8,3.5,3.7,5,5.6c2.1,2.6,3.9,5.4,5.4,8.4c1,1.9,1.9,3.9,2.7,5.9
			c1.5,3.7,2.5,7.5,3.2,11.5c0.3,1.5,0.4,3,0.5,4.6c0.2,1.9,0.3,3.9,0.3,5.8c0,2.3-0.2,4.6-0.5,6.9c-0.4,2.9-0.9,5.7-1.5,8.5
			c-0.8,4-1.7,7.9-2.7,11.9c-0.6,2.6-1.4,5.1-2.3,7.6c-1,3-2.2,5.9-3.3,8.9c-0.1,0.2-0.1,0.4-0.2,0.6c-0.1,0-0.2-0.1-0.3-0.1
			c0.1-0.1,0.1-0.2,0.2-0.3c1-2.9,2-5.7,3-8.6c0.6-1.9,1.2-3.8,1.6-5.7c0.9-3.8,1.8-7.6,2.6-11.4c0.9-3.9,1.7-7.8,1.9-11.8
			c0.1-1.7,0.2-3.5,0.3-5.2c0-1.4-0.1-2.7-0.2-4.1c-0.1-1.7-0.3-3.4-0.5-5.1c-0.4-2.2-0.8-4.4-1.4-6.5c-1.2-4.6-3-9-5.4-13.2
			c-1.1-1.9-2.3-3.8-3.6-5.6c-1.5-2.2-3.3-4.2-5.2-6.1c-0.9-0.9-1.8-1.7-2.7-2.5c-1.3-1.1-2.6-2.1-4.1-3.1c-1.5-1-3-1.8-4.6-2.7
			c-2.4-1.3-5.1-2.1-7.7-2.8c-3.2-0.8-6.4-1.1-9.7-0.8c-2.2,0.2-4.5,0.4-6.6,1.1c-2.8,0.8-5.5,1.5-8.1,2.9c-1.8,0.9-3.6,1.7-5.2,2.9
			c-1.4,1-2.8,1.9-4.1,2.9c-1.3,1-2.5,2.1-3.7,3.2c-0.9,0.8-1.7,1.7-2.5,2.5c-1.7,1.8-3.2,3.7-4.6,5.8c-1.3,1.9-2.5,3.8-3.5,5.9
			c-0.9,1.8-1.6,3.7-2.4,5.6c-0.2,0.5-0.4,1.1-0.7,1.6c0-0.2,0-0.3,0.1-0.5c0.9-2.2,1.7-4.5,2.7-6.7c1-2,2.1-4,3.2-6
			c1.2-2.1,2.6-4,4.1-5.8c1.2-1.4,2.3-2.8,3.6-4c1.6-1.6,3.3-3.1,5.1-4.5c1.3-1,2.7-1.9,4-2.9c1.7-1.2,3.5-2,5.3-3
			c2.7-1.4,5.6-2.2,8.5-2.9C1185.8,442.1,1187.6,441.9,1189.3,441.8z"/>
		<path class="st3" d="M1224.5,539.8c0.1,0,0.2,0.1,0.3,0.1c1.6,0.9,2.1,2.3,1.6,4.2c-0.2,0.3-0.4,0.6-0.6,0.9
			c-0.6,0.5-1.2,0.9-2,0.9c-1.2,0.1-2-0.4-2.6-1.2c-2,2-4.4,3.3-6.8,4.4c0.6,0.3,1.4,0.5,2,1c1.4,1,2.7,2.2,4.1,3.2
			c0,0.3,0,0.5,0,0.8c-0.3,0.2-0.6,0.4-0.9,0.5c-0.3,0-0.6,0.1-0.8,0.1c-1.8,0.5-3.7,0.7-5.6,0.3c0.5,0.8,1,1.6,1.4,2.4
			c0.7,1.4,0.8,2.9,0.7,4.5c0,0.4-0.4,0.7-0.7,0.6c-0.3-0.2-0.7-0.4-1-0.5c-0.9-0.5-1.9-0.9-2.8-1.4c0,0,0,0,0,0
			c0,0-0.1-0.1-0.1-0.1l0,0c-0.1,0-0.1-0.1-0.2-0.1c-0.2-0.2-0.5-0.3-0.7-0.5c-0.1-0.1-0.2-0.1-0.3-0.2c-0.2-0.2-0.5-0.4-0.7-0.7
			c0,0-0.1,0.1-0.1,0.1c0.4,1.6,0.4,3.2,0.2,4.8c-0.2,0.8-0.4,1.6-0.6,2.3c-0.3,0.8-0.5,0.9-1.2,0.5c-0.6-0.6-1.2-1.2-1.7-1.8
			c-0.6-0.8-1.2-1.7-1.7-2.6c-0.2-0.4-0.4-0.9-0.5-1.2c-0.5,0.9-1.1,1.9-1.6,2.8c-0.3,0.4-0.7,0.7-1,1.1c-0.7,0.6-1.4,1.1-2,1.7
			c-0.1,0-0.1,0.1-0.2,0.1c0,0,0,0,0,0c-0.5,0-0.7-0.3-0.9-0.7c-0.1-0.4-0.3-0.8-0.3-1.2c-0.2-1.1-0.4-2.2-0.5-3.3
			c0-0.5,0.1-1,0.2-1.6c-0.4,0.2-0.7,0.4-1,0.6c-1.3,0.8-2.8,1.1-4.3,1.4c-0.2,0-0.4,0.1-0.5,0.1c-0.2,0-0.4,0-0.6,0
			c-0.1-0.2-0.2-0.4-0.4-0.6c0.4-2.7,1.3-5.2,3.7-7c-0.2,0-0.3,0-0.4,0c-2.2,0.3-4.3-0.1-6.3-1.1c-0.5-0.3-0.6-0.5-0.3-1
			c0.3-0.5,0.7-1.1,1.1-1.5c0.9-1.1,2-1.9,3.4-2.4c0.1,0,0.2-0.1,0.4-0.2c-0.4-0.2-0.8-0.3-1.1-0.4c-1.8-0.7-3.1-1.9-3.8-3.7
			c-0.1-0.4-0.2-0.8,0.3-1c0.8-0.3,1.6-0.6,2.5-0.8c1.3-0.3,2.6-0.3,3.9-0.1c0,0,0,0,0.1,0c0,0,0-0.1,0-0.1c0,0,0-0.1-0.1-0.1
			c-1.5-1.7-2.2-3.7-2.5-5.9c-0.2-1,0.1-1.2,1.1-1c0,0,0.1,0,0.1,0c1.9,0.4,3.7,1,5.1,2.4c0.4,0.4,0.8,0.8,1.1,1.2
			c0-0.7,0-1.5,0-2.3c0.1-0.5,0.1-1,0.2-1.5c0.1-0.6,0.2-1.3,0.3-1.9c0,0,0,0,0,0c0,0,0,0,0,0c0,0,0-0.1,0-0.1
			c0.2-0.6,0.4-1.1,0.6-1.7c0.1-0.2,0.4-0.4,0.5-0.6c0.5,0.1,0.7,0.5,1,0.9c1.4,1.7,2.5,3.6,3.1,5.7c0,0,0.1-0.1,0.1-0.1
			c0.4-1.3,1.2-2.5,2-3.5c0.6-0.8,1.4-1.5,2.1-2.2c0.4-0.4,0.6-0.4,1,0c0.1,0.6,0.3,1.1,0.4,1.7c0,0.1,0,0.2,0,0.2
			c0.2,1.7,0.3,3.5,0.1,5.2c0.7-0.4,1.3-0.8,2-1.2c1.3-0.8,2.8-1,4.4-0.9c0.7,0.1,0.8,0.2,0.8,0.9c0,1.7-0.5,3.2-1.5,4.5
			c-0.3,0.4-0.6,0.7-0.8,1c1.1,0.1,2.2,0,3.3,0.3c1.1,0.3,2.1,0.8,3.1,1.2c0,0,0.1,0,0.1,0c0,0,0-0.1,0-0.1
			c-0.3-0.8-0.3-1.6-0.1-2.4c0.2,0,0.4,0.1,0.6,0.1c0,0.2-0.1,0.4-0.1,0.5c-0.4,1.6,1,3.1,2.6,3.1c0.7,0,1.3-0.4,1.8-1
			c0.7-0.8,0.8-1.8,0.3-2.7c-0.4-0.8-1-1.3-1.9-1.4c0.1-0.2,0.1-0.4,0.2-0.5C1224.2,539.8,1224.4,539.8,1224.5,539.8z M1214.2,536.9
			c-2.1,0.2-3.8,1.1-5.2,2.8c-0.3,0.4-0.6,0.7-1,1l0,0c0.1-0.2,0.2-0.4,0.2-0.7c0.2-0.9,0.6-1.8,0.7-2.7c0.1-1.1,0-2.3-0.1-3.4
			c-0.1-0.8-0.3-1.5-0.4-2.4c-2.6,2.4-4.5,5-4.8,8.6c-0.2-3.5-1.8-6.3-4-8.8c-0.3,1-0.6,1.9-0.8,2.9c-0.4,1.7-0.5,3.3-0.1,5
			c0.2,0.7,0.3,1.5,0.5,2.2l0,0c-0.4-0.5-0.8-1.1-1.1-1.6c-0.8-1.4-2-2.4-3.3-3.1c-0.9-0.5-1.9-0.7-2.8-1c-0.3-0.1-0.6-0.1-1-0.1
			c0.3,3.5,1.9,6.1,4.5,8.3c-2.9-1.6-5.7-1.2-8.7-0.2c0.1,0.3,0.1,0.4,0.2,0.6c0.7,1.4,1.8,2.5,3.3,3.1c1.4,0.5,2.8,0.8,4.4,1.3
			c-3.6-0.4-6.1,1.2-7.9,4.2c1.4,0.7,2.9,1,4.4,1.2c1.1,0.2,2.2-0.3,3.3-0.4c0.7-0.1,1.3-0.3,2-0.5c-3.5,1.7-5.7,4.4-6.1,8.4
			c3-0.2,5.6-1.2,7.6-3.6c-1.5,2.8-1.1,5.6,0,8.4c3.3-1.9,4.8-4.9,5.2-8.5c-0.1,3.7,1.6,6.4,4.3,8.7c0.9-2.4,1.2-4.9,0.6-7.4
			c-0.2-0.7-0.4-1.4-0.6-2.1l0,0c1.9,2.3,4.5,3.8,7.3,4.9c0-0.2,0.1-0.2,0.1-0.3c0.1-2.5-0.7-4.6-2.4-6.4c-0.5-0.5-1.1-1.1-1.6-1.6
			c0,0,0,0,0,0c0.2,0.1,0.4,0.1,0.5,0.2c1.2,0.8,2.5,1,3.8,1c1.5,0.1,2.9-0.3,4.3-0.8c0.2-0.1,0.3-0.2,0.6-0.3
			c-2.5-2.1-4.8-4.2-8.2-4.6c3.4-0.4,6-2.4,8.6-4.4c-0.5-0.2-0.8-0.5-1.2-0.6c-1.5-0.7-3.1-1.1-4.8-0.8c-0.9,0.2-1.9,0.5-2.8,0.8
			c0,0,0,0,0,0c0.8-0.7,1.6-1.3,2.3-2c1.3-1.3,1.8-2.9,2-4.6c0-0.2,0.1-0.5-0.3-0.5C1215.4,536.6,1214.5,536.6,1214.2,536.9z"/>
		<path class="st4" d="M1210.7,560.7c0.9,0.5,1.9,0.9,2.8,1.4c0.3,0.2,0.7,0.4,1,0.5c0.3,0.1,0.7-0.2,0.7-0.6c0.1-1.5,0-3.1-0.7-4.5
			c-0.4-0.8-0.9-1.6-1.4-2.4c1.9,0.5,3.7,0.2,5.6-0.3c0.2,0.1,0.3,0.1,0.5,0.2c1.1,0.4,2,0.9,2.8,1.8c1,1.1,1.7,2.4,2.2,3.8
			c0.6,1.7,1.1,3.5,1.7,5.2c-0.1,0-0.1,0-0.2,0c-1.1-0.2-2.2-0.4-3.4-0.6c-1.7-0.3-3.4-0.6-5.1-1c-2-0.5-3.9-1.1-5.5-2.4
			C1211.4,561.5,1211.1,561,1210.7,560.7z"/>
		<path class="st0" d="M1209.4,559.8c0.1,0.1,0.2,0.1,0.3,0.2c0.7,1,1.2,2.1,2,2.9c1.3,1.4,3.1,2,5,2.4c0.1,0,0.2,0.1,0.3,0.2
			c-0.1,0.2-0.3,0.3-0.3,0.5c-1,3.3-1.9,6.5-2.9,9.8c-0.1,0.4-0.1,0.9-0.7,0.9c-0.4-0.1-0.9-0.2-1.3-0.3c-1.4-0.2-2.7-0.4-4.1-0.6
			c2.2-1.2,4.4-2.4,6.5-3.6c-0.6-0.5-1.1-0.9-1.7-1.3c-0.9-0.6-1.7-1.3-2.6-1.9c-0.7-0.5-1.3-1-2-1.4c0.4-0.7,0.9-1.3,1.2-2
			c0.4-1.1,0.4-2.3,0.3-3.5C1209.4,561.3,1209.4,560.5,1209.4,559.8z"/>
		<path class="st4" d="M1216.9,565.4c-0.1-0.1-0.2-0.1-0.3-0.2c-1.9-0.4-3.6-1-5-2.4c-0.8-0.9-1.3-1.9-2-2.9
			c0.2,0.2,0.5,0.3,0.7,0.5c0.1,0,0.1,0.1,0.2,0.1c0,0,0,0,0,0c0,0,0.1,0.1,0.1,0.1c0,0,0,0,0,0c0.4,0.4,0.7,0.8,1.2,1.2
			c1.6,1.3,3.6,2,5.5,2.4c1.7,0.4,3.4,0.7,5.1,1c1.1,0.2,2.2,0.4,3.4,0.6c-0.2,0-0.3,0.1-0.5,0.1c-1.4,0-2.8,0.1-4.2,0
			C1219.7,565.9,1218.3,565.6,1216.9,565.4z"/>
		<path class="st5" d="M1225.7,545c0.2-0.3,0.4-0.6,0.6-0.9c1.1,0.9,1.8,2.1,2.4,3.4c0.1,0.2,0.1,0.6,0,0.8c-0.8,1.4-1.7,2.9-3,4
			c-1,1-2.3,1.2-3.6,1.5c-0.5,0.1-1.1,0.3-1.6,0.4c0-0.3,0-0.5,0-0.8c1.9-0.6,3.8-0.9,5.2-2.6c0.7-0.9,1.5-1.7,2.2-2.5
			c0.2-0.3,0.3-0.5,0-0.7c-0.5-0.5-1-1-1.4-1.5C1226.2,545.8,1226,545.4,1225.7,545z"/>
		<path class="st4" d="M1226,565.9c-0.6-1.7-1.1-3.5-1.7-5.2c-0.5-1.4-1.2-2.7-2.2-3.8c-0.8-0.9-1.7-1.5-2.8-1.8
			c-0.2-0.1-0.3-0.1-0.5-0.2c0.3,0,0.6-0.1,0.8-0.1c0.3,0.2,0.7,0.4,1,0.5c2.3,0.6,3.6,2.2,4.4,4.3c0.6,1.6,0.9,3.4,1.3,5
			c0.1,0.4,0.1,0.8,0.1,1.2C1226.3,565.9,1226.1,565.9,1226,565.9z"/>
		<path class="st4" d="M1196.8,537.4c-1.4-1.4-3.2-2.1-5.1-2.4c0,0-0.1,0-0.1,0c-1-0.2-1.2,0.1-1.1,1c0.3,2.2,1,4.2,2.5,5.9
			c0,0,0,0.1,0.1,0.1c0,0,0,0-0.1,0.1c-1.3-0.2-2.6-0.2-3.9,0.1c-0.8,0.2-1.6,0.5-2.5,0.8c-0.5,0.2-0.4,0.6-0.3,1
			c0.7,1.8,2,3,3.8,3.7c0.3,0.1,0.7,0.2,1.1,0.4c-0.2,0.1-0.3,0.2-0.4,0.2c-1.4,0.5-2.4,1.3-3.4,2.4c-0.4,0.5-0.7,1-1.1,1.5
			c-0.3,0.5-0.2,0.7,0.3,1c2,1,4.1,1.5,6.3,1.1c0.1,0,0.2,0,0.4,0c-2.3,1.8-3.2,4.3-3.7,7c-1,0.4-2,0.8-3,1.1
			c-1.2,0.4-2.5,0.7-3.7,1c-0.5,0.1-1.1,0.2-1.6,0.3c-0.3-1.1-0.5-2.2-0.7-3.2c-0.2-1.1-0.5-2.1-0.8-3.2c1.1-0.1,1.9-0.7,2.5-1.6
			c0.9-1.5,0.3-3.5-1.1-4.3c-1.5-0.8-3.4-0.3-4.2,1.3c-0.2,0.4-0.3,0.9-0.4,1.3c-0.4,0.2-0.7,0.4-1.1,0.5c-1.7,0.8-3.4,1.4-5.3,1.6
			c-2.3,0.2-4.6,0-6.8-0.4c-1.3-0.3-2.5-0.6-3.8-0.9c0-0.3,0-0.6,0-0.9c0.1-0.1,0.2-0.2,0.2-0.3c0.1-1.2,0.5-2.2,1.2-3.2
			c0.8-1.1,1.8-2,2.7-3c0.3,1.1,0.5,2.2,0.8,3.4c0.1,0.4,0.4,0.5,0.8,0.3c0.5-0.3,1-0.6,1.4-1c1.2-0.8,2.2-1.7,2.9-3
			c0.2-0.3,0.3-0.6,0.5-0.9c0.2,0.5,0.4,1,0.6,1.5c0.7,1.7,1.8,3,3.1,4.2c0.4,0.4,0.7,0.3,1-0.2c0.3-0.6,0.6-1.2,0.9-1.8
			c0.5-1.2,0.8-2.5,0.7-3.8c0-0.2,0-0.5,0-0.6c1.1,0.8,2.1,1.6,3.3,2.3c0.8,0.4,1.7,0.6,2.6,0.8c0.3,0.1,0.5,0,0.5-0.4
			c0-1.5,0-3-0.6-4.4c-0.4-1-1-1.9-1.4-2.8c0.4,0.1,0.9,0.2,1.4,0.2c1.6,0.2,3.2,0,4.7-0.5c0.4-0.1,0.6-0.3,0.4-0.8
			c-0.8-1.8-1.9-3.3-3.5-4.4c-0.2-0.1-0.3-0.2-0.6-0.3c0.3-0.1,0.5-0.1,0.7-0.1c1.9-0.4,3.3-1.4,4.3-3c0.4-0.7,0.4-1-0.2-1.6
			c-0.8-0.8-1.7-1.4-2.8-1.6c-0.9-0.1-1.8-0.1-2.7-0.1l0,0c0.5-0.7,1.1-1.4,1.6-2.1c0.1,0,0.1,0,0.2,0c2.4-0.9,4.9-1.4,7.5-1.8
			c1.2-0.2,2.5,0,3.8,0c0.1,0,0.2,0.2,0.2,0.3c0.3,1,0.6,2.1,0.8,3.1c0.4,1.7,0.7,3.4,0.7,5.2c0,1,0,2,0,3
			C1197.1,537,1196.9,537.2,1196.8,537.4z"/>
		<path class="st6" d="M1182.4,529.2c0.9,0,1.8,0,2.7,0.1c1.1,0.2,2,0.8,2.8,1.6c0.5,0.6,0.6,0.9,0.2,1.6c-1,1.6-2.5,2.6-4.3,3
			c-0.2,0-0.4,0.1-0.7,0.1c0.2,0.1,0.4,0.2,0.6,0.3c1.6,1.1,2.8,2.6,3.5,4.4c0.2,0.4-0.1,0.7-0.4,0.8c-1.5,0.5-3.1,0.7-4.7,0.5
			c-0.5-0.1-1-0.2-1.4-0.2c0.5,0.9,1,1.9,1.4,2.8c0.6,1.4,0.6,2.9,0.6,4.4c0,0.4-0.3,0.5-0.5,0.4c-0.9-0.2-1.8-0.4-2.6-0.8
			c-1.2-0.7-2.2-1.5-3.3-2.3c0,0.1,0,0.4,0,0.6c0.2,1.3-0.1,2.6-0.7,3.8c-0.3,0.6-0.6,1.2-0.9,1.8c-0.3,0.4-0.6,0.5-1,0.2
			c-1.3-1.2-2.4-2.6-3.1-4.2c-0.2-0.5-0.4-1-0.6-1.5c-0.2,0.3-0.3,0.6-0.5,0.9c-0.7,1.3-1.7,2.2-2.9,3c-0.5,0.3-0.9,0.7-1.4,1
			c-0.3,0.2-0.7,0.1-0.8-0.3c-0.3-1.1-0.5-2.2-0.8-3.4c0-0.5,0.1-1,0.1-1.6c0-0.2,0.1-0.4,0.1-0.6c0-0.2,0-0.3,0.1-0.6
			c-0.3,0.2-0.5,0.2-0.8,0.4c-0.3,0.2-0.6,0.4-0.9,0.5c-1.2,0.5-2.5,0.7-3.8,0.6c-0.2,0-0.5,0-0.7,0.1c-0.2-0.1-0.3-0.1-0.5-0.2
			c0,0-0.1-0.1-0.1-0.1c0,0,0,0,0,0c0-0.5-0.1-1-0.1-1.5c0.3-2.2,1.3-4.1,3.1-5.6c-0.7-0.1-1.3-0.1-1.8-0.3
			c-1.3-0.4-2.6-0.9-3.9-1.3c-0.5-0.3-0.7-0.7-0.5-1.2c0,0,0,0,0,0c0.3-0.2,0.5-0.4,0.8-0.6c1.2-1,2.3-2.1,3.9-2.6
			c0.3-0.1,0.5-0.1,0.9-0.2c-0.3-0.1-0.6-0.2-0.8-0.3c0,0,0,0,0,0c-0.7-0.5-1.4-0.9-2.2-1.4c-0.1-0.2-0.2-0.3-0.3-0.5
			c-0.4-0.7-0.9-1.4-1.3-2.2c-0.3-0.6-0.2-0.9,0.5-1.2c1.9-0.8,3.8-0.9,5.8-0.3c0.2,0.1,0.3,0.1,0.5,0.1c-0.3-0.8-0.8-1.6-1-2.5
			c-0.3-1.1-0.4-2.2-0.6-3.4c-0.1-0.6,0.3-0.9,0.9-0.8c0.1,0,0.3,0,0.4,0c1.6,0.2,3,0.7,4.2,1.9c0.4,0.4,0.7,0.7,1.1,1.1
			c0.1-1,0.2-2,0.4-2.9c0.3-1.2,0.6-2.4,1-3.6c0.1-0.2,0.2-0.4,0.4-0.6c0.2,0,0.5,0,0.6,0.2c0.7,1,1.5,2,2.1,3.1
			c0.6,1,1,2.1,1.4,3.2c0.1-0.2,0.2-0.5,0.3-0.7c1.1-1.7,2.2-3.3,3.8-4.6c0.4-0.4,0.9-0.2,1,0.4c0.4,1.9,0.6,3.9,0.3,5.9
			c-0.1,0.5-0.2,1-0.3,1.5c0.4-0.3,0.7-0.6,1.1-0.9c1.8-1.3,3.8-1.7,6-1.7c0.5,0.1,0.6,0.5,0.5,0.9c-0.3,0.9-0.7,1.8-1,2.7
			c-0.1,0.2-0.2,0.5-0.3,0.7C1183.5,527.8,1182.9,528.5,1182.4,529.2C1182.4,529.2,1182.4,529.2,1182.4,529.2
			C1182.4,529.2,1182.4,529.2,1182.4,529.2z M1176.3,527.9C1176.3,527.9,1176.2,527.8,1176.3,527.9c0.2-0.6,0.5-1.2,0.7-1.8
			c0.7-2,0.7-4,0.5-6c-0.1-0.6-0.2-1.3-0.3-2.1c-2.5,2.3-4.4,4.7-5,8.1c0.2-3.4-1.3-6.2-3.5-8.8c-1.1,3-1.8,5.9-0.8,9
			c-1.8-2.5-3.6-5-7.2-4.9c0.1,3.1,1,5.7,3.4,7.7c-0.2,0-0.4-0.1-0.6-0.2c-0.9-0.4-1.7-0.9-2.6-1.2c-1.7-0.6-3.4-0.4-5.1,0.2
			c-0.3,0.1-0.5,0.2-0.3,0.6c0.5,1.2,1.3,2.3,2.4,3.1c0.7,0.5,1.6,0.8,2.4,1.1c0.7,0.3,1.4,0.4,2.1,0.7c-3.2-0.2-5.7,1.3-7.8,3.6
			c2.6,1.4,5.3,2.2,8.2,1.4c-3,1.6-4.9,4-5,7.5c3.6,0.7,6-1.1,8.2-3.6c-1.7,2.7-2.2,5.6-0.8,8.6c3.1-1.5,5-3.9,5.3-7.4
			c-0.2,4.3,2.5,7.4,4,8.5c0.2-0.4,0.4-0.9,0.6-1.3c1.1-2.1,1.2-4.2,0.4-6.4c-0.2-0.4-0.3-0.8-0.4-1.2l0,0c0.2,0.3,0.5,0.6,0.7,0.9
			c1.2,1.7,2.7,3.2,4.8,4c0.6,0.2,1.1,0.4,1.8,0.7c0.2-3.7-1-6.7-4.2-8.7c2.9,1.2,5.7,1.7,8.8,0.6c-0.4-0.7-0.8-1.4-1.2-2
			c-0.5-0.6-1-1.2-1.6-1.7c-0.6-0.5-1.3-0.8-2-1.1c-0.7-0.3-1.4-0.3-2.1-0.5c1-0.1,2.1-0.2,3.1-0.3c1.6-0.2,3-0.9,4.1-2.1
			c0.2-0.3,0.4-0.6,0.6-0.9c0.1-0.1,0-0.4-0.1-0.5c-0.1-0.2-0.3-0.4-0.5-0.5c-1.5-1.2-3.2-1.6-5.1-1.1c-0.9,0.2-1.7,0.5-2.6,0.8l0,0
			c0.1-0.1,0.2-0.2,0.4-0.3c1-0.7,2-1.4,2.8-2.4c1-1.3,1.6-2.7,2.1-4.2c0-0.1,0-0.2,0-0.4c-0.6,0.1-1.2,0.1-1.8,0.1
			c-2.1,0.3-3.9,1.2-5.3,2.8C1177.3,526.8,1176.8,527.3,1176.3,527.9z"/>
		<path class="st7" d="M1168.4,516.6c-0.1,0.2-0.2,0.4-0.4,0.6c-0.2,0-0.5,0-0.7-0.1c-0.3-0.1-0.5-0.4-0.7-0.6
			c-0.8-0.8-1.7-1.5-2.5-2.3c-0.3-0.3-0.5-0.7-0.7-1.1c-0.3,0.6-0.4,1.3-0.8,1.8c-0.8,1.1-1.7,2.1-2.6,3.2c-0.4,0.5-0.8,0.4-1.1-0.2
			c-0.8-1.5-1.3-3.2-1.2-5c0-0.2,0.1-0.5,0.1-0.7c-1.4,1.4-2.9,2.6-4.8,3.1c1.2,0.4,1.8,1.4,2,2.5c-0.2,0-0.4,0.1-0.6,0.1
			c-0.2-0.5-0.3-1-0.6-1.4c-0.9-1.1-2.5-1.2-3.5-0.2c-1.1,1.1-1.1,2.6-0.2,3.7c0.6,0.8,1.5,1,2.4,0.8c0,0.2,0,0.3,0,0.5
			c-0.5,0-1.1-0.1-1.6-0.1c-0.5-0.3-1-0.7-1.5-1c-0.4-0.6-0.6-1.3-0.6-2.1c0.1-0.4,0.2-0.8,0.3-1.2c0.3-0.4,0.5-0.8,0.8-1.1
			c0.5-0.3,0.9-0.5,1.4-0.7c0-0.8,0-1.5,0-2.3c0.1-1.5,0.6-2.9,1.5-4.1c0,0,0,0,0-0.1c0,0,0,0-0.1,0c-1.8,0.6-3.5,0.6-5.2-0.1
			c-0.5-0.2-0.7-0.5-0.7-1c0.3-0.5,0.6-1,0.9-1.4c0.2-0.3,0.5-0.7,0.7-1c0.8-0.6,1.6-1.2,2.3-1.8c-0.5-0.2-1.2-0.4-1.8-0.7
			c-0.3-0.1-0.6-0.3-0.9-0.5c-0.1-0.1-0.2-0.2-0.4-0.3c-0.5-0.4-1.1-0.9-1.6-1.3c-0.4-0.4-0.4-0.8,0.1-1.2c0.5-0.3,1.1-0.7,1.6-1
			c1-0.4,1.9-0.7,3-0.7c0.2,0,0.4,0,0.6,0c-1.3-1.5-2.3-3-2.4-5c0.2-0.1,0.4-0.4,0.6-0.4c1.1,0.1,2.3,0.2,3.4,0.5
			c0.8,0.2,1.5,0.5,2.4,0.9c-0.4-1.5-0.5-2.9-0.4-4.4c0-0.4,0.1-0.7,0.1-1.1c0-0.1,0.1-0.2,0.1-0.2c-0.1-0.9,0.7-1.1,1.3-0.5
			c0.5,0.5,1.1,1,1.6,1.5c0.9,0.9,1.7,1.8,2.2,3c0.5-2,1.4-3.9,2.6-5.6c0.3-0.5,0.8-0.5,1.1,0.1c0.8,1.9,1.5,3.7,1.5,5.8
			c0,0.1,0,0.3,0,0.6c0.2-0.2,0.3-0.4,0.4-0.5c0.4-0.4,0.7-0.9,1.1-1.3c0.5-0.5,1.1-0.9,1.8-1.2c0.8-0.4,1.7-0.8,2.6-0.8
			c0.3,0,0.5,0.1,0.5,0.5c0.1,2-0.5,3.8-1.4,5.5c0,0,0.1,0,0.1,0c1.7-0.4,3.3-0.2,4.9,0.3c0.7,0.2,0.8,0.5,0.6,1.2
			c0,0.1-0.1,0.3-0.1,0.4c-0.6,1.7-1.9,2.7-3.5,3.5c0.5,0.2,1,0.3,1.4,0.5c1.2,0.6,2.1,1.5,2.9,2.6c0.3,0.4,0.2,0.7-0.2,1
			c-0.1,0.1-0.1,0.1-0.2,0.2c-0.3,0.1-0.6,0.3-0.8,0.4c-0.4,0.2-0.9,0.4-1.3,0.5c-0.9,0.2-1.7,0.4-2.6,0.5c2,1.3,2.9,3.3,2.9,5.7
			c0,0.4-0.1,0.6-0.5,0.7c-1,0.2-2,0-2.9-0.3c-0.8-0.2-1.6-0.6-2.5-0.9C1169.1,513.1,1169,514.8,1168.4,516.6z M1168.3,496.6
			C1168.3,496.6,1168.3,496.6,1168.3,496.6c0-0.1,0.1-0.3,0.2-0.4c1.2-1.2,2.1-2.6,2.5-4.3c0.2-0.8,0.3-1.7,0.4-2.7
			c-1.7,0.4-3.1,1.1-4.3,2.2c-1.2,1.1-1.8,2.6-2.6,4c0.9-3.2,0.3-6.2-1.1-9.2c-1.7,2.5-2.9,5.1-2.8,8.1c-0.4-3.1-2.4-5.1-4.8-7
			c-0.1,0.4-0.1,0.7-0.1,1c0,1.4,0,2.8,0.1,4.2c0.1,1.1,0.7,2,1.2,2.9c0,0,0,0,0,0c-1-0.8-2-1.7-3.2-2.1c-0.6-0.2-1.3-0.4-2-0.5
			c-0.7-0.1-1.3-0.1-2-0.2c0,0.2,0,0.3,0,0.5c0.3,1.7,1.2,3.1,2.5,4.2c0.6,0.5,1.3,0.9,1.9,1.3l0,0c-0.2,0-0.4-0.1-0.5-0.1
			c-1.4-0.4-2.9-0.6-4.4-0.2c-1,0.3-2,0.7-2.8,1.6c2.1,2.1,4.5,3.2,7.5,3c-3.1,0.4-5.1,2.1-6.4,4.8c0.3,0.1,0.6,0.2,0.8,0.3
			c0.9,0.5,1.9,0.7,2.8,0.4c1.1-0.3,2.1-0.8,3.2-1.2c0.3-0.1,0.6-0.3,0.9-0.4c-2.4,2.2-3.8,4.7-3.3,8.1c3.4-0.7,5.5-2.8,6.8-5.8
			c-0.2,1.5-0.4,2.9-0.5,4.4c-0.1,1.5,0.5,2.9,1.2,4.3c2-2,3.9-4,3.4-7.1c0.9,2.6,2.6,4.4,4.9,5.9c0.5-1.3,0.8-2.6,0.6-3.9
			c-0.2-1.3-0.7-2.5-1.5-3.6c2.1,1.8,4.3,3.2,7.2,2.8c-0.2-3.6-2.2-5.6-5.5-6.6c2.8,0.7,5.4,0.1,8-1.3c-0.5-0.5-0.9-0.9-1.3-1.3
			c-0.7-0.8-1.6-1.4-2.7-1.6c-1-0.2-2-0.2-3-0.2l0,0c0.2-0.1,0.3-0.2,0.5-0.2c1.3-0.4,2.5-0.8,3.5-1.6c0.9-0.7,1.6-1.5,1.9-2.6
			c0.1-0.4,0-0.5-0.3-0.7c-1.4-0.6-2.8-0.8-4.2-0.4C1170,495.7,1169.2,496.2,1168.3,496.6z"/>
		<path d="M1148.5,505.1c-0.2,0.3-0.5,0.7-0.7,1c-0.5,0.3-1,0.6-1.5,0.8c-0.3-1.7-0.6-3.5-0.9-5.2c-0.6-3.6-0.5-7.1-0.4-10.7
			c0-1.4,0.3-2.8,0.5-4.1c0.6,2.2,1.3,4.4,2.4,6.4c0,0,0,0.1,0,0.1c0,0.2-0.1,0.3-0.1,0.5c0,1.4,0,2.9,0,4.3c-0.5,0.3-1.1,0.7-1.6,1
			c-0.5,0.3-0.6,0.8-0.1,1.2c0.5,0.5,1.1,0.9,1.6,1.3c0.1,0.1,0.2,0.2,0.4,0.3c0,0.1,0,0.3,0,0.4
			C1148.2,503.4,1148.3,504.3,1148.5,505.1z"/>
		<path class="st4" d="M1146.9,507.6c0,0.5,0.2,0.8,0.7,1c1.7,0.7,3.5,0.7,5.2,0.1l0,0c-0.9,1.2-1.4,2.6-1.5,4.1
			c-0.1,0.8,0,1.5,0,2.3c-0.4,0.2-0.9,0.5-1.4,0.7c-1.9-1.4-3.4-3.2-4.4-5.3c-0.1-0.2-0.3-0.3-0.4-0.5c-0.1-0.3-0.2-0.7-0.2-1
			c0-0.2,0-0.3,0-0.5C1145.6,508.2,1146.3,507.9,1146.9,507.6z"/>
		<path class="st1" d="M1151,521.3c0.5,0,1.1,0.1,1.6,0.1c0,0.2,0.1,0.4,0.1,0.6c-0.3,0.3-0.6,0.6-0.9,0.9c-1.1,1-1.8,2.3-2.5,3.6
			c-0.1,0.3-0.1,0.5,0.1,0.7c0.7,0.6,1.4,1.3,2.2,1.8c1.5,1.2,3.2,1.9,5.1,2.4c0.7,0.5,1.4,0.9,2.2,1.4c-0.9-0.1-1.9-0.3-2.8-0.4
			c-1-0.3-2-0.7-3-1c0,0,0,0,0,0c0,0-0.1-0.1-0.1-0.1c-0.1-0.2-0.3-0.3-0.4-0.5c-0.9-0.7-1.7-1.5-2.6-2.2c-0.4-0.4-0.9-0.9-1.1-1.4
			c-0.2-0.4,0-0.9,0-1.4c0.1-1.2,0.8-2.3,1.3-3.5C1150.4,522,1150.7,521.6,1151,521.3z"/>
		<path class="st1" d="M1159.7,555c1.3,0.3,2.5,0.6,3.8,0.9c2.3,0.5,4.5,0.6,6.8,0.4c1.9-0.1,3.6-0.8,5.3-1.6
			c0.4-0.2,0.7-0.4,1.1-0.5c0,0.2,0,0.3,0,0.5c-1.2,0.6-2.4,1.3-3.6,1.9c-0.8,0.3-1.7,0.5-2.5,0.8c-1.4,0-2.9-0.1-4.3-0.1
			c-1.4-0.3-2.7-0.5-4.1-0.8c-0.8-0.2-1.6-0.4-2.4-0.6C1159.7,555.6,1159.7,555.3,1159.7,555z"/>
		<path class="st8" d="M1163.9,546.1c0,0.5-0.1,1-0.1,1.6c-0.9,1-1.9,1.9-2.7,3c-0.6,0.9-1.1,2-1.2,3.2c0,0.1-0.1,0.2-0.2,0.3
			c0.2-1.3,0.4-2.5,0.6-3.8c0.2-0.5,0.4-0.9,0.6-1.4c0.6-0.8,1.1-1.7,1.6-2.4c-0.8,0.1-1.8,0.2-2.7,0.3c-0.2,0-0.3,0-0.5,0
			c-0.4-0.1-0.9-0.2-1.3-0.2c0.2,0,0.5-0.1,0.7-0.1c1.3,0.1,2.6-0.1,3.8-0.6c0.3-0.1,0.6-0.4,0.9-0.5c0.2-0.1,0.4-0.2,0.8-0.4
			c0,0.3-0.1,0.4-0.1,0.6c-0.3,0.2-0.6,0.5-0.9,0.7c0,0,0,0,0,0c0,0,0,0,0,0c0,0,0,0,0.1,0C1163.3,546.2,1163.6,546.2,1163.9,546.1z
			"/>
		<path class="st9" d="M1157.2,544.8c0,0.5,0.1,1,0.1,1.5c-0.8-0.2-1.6-0.5-2.3-1c-0.8-0.6-1.6-1.1-2.4-1.6
			c-0.5-0.3-0.6-0.8-0.5-1.3c0.3-1.9,0.8-3.8,1.7-5.6c0.1-0.1,0.2-0.2,0.3-0.3c-0.2,0.6,0,0.9,0.5,1.2c-0.1,0.1-0.1,0.3-0.2,0.4
			c-1,1.5-1.6,3.1-2,4.8c-0.1,0.3,0,0.4,0.2,0.5c0.9,0.3,1.8,0.7,2.7,1C1155.9,544.5,1156.6,544.7,1157.2,544.8z"/>
		<path d="M1153,531.3c1,0.3,2,0.7,3,1c0.2,0.5,0.4,0.9,0.5,1.4c-0.6,0.6-1.3,1.2-1.9,1.8c-0.5-1.3-1-2.6-1.5-3.9
			C1153.1,531.5,1153.1,531.4,1153,531.3z"/>
		<path class="st5" d="M1145.2,510c0.1,0.2,0.3,0.3,0.4,0.5c1,2.1,2.5,3.9,4.4,5.3c-0.3,0.4-0.5,0.8-0.8,1.1
			c-0.2-0.2-0.5-0.5-0.7-0.7c-0.5-0.6-1.1-1.2-1.5-1.9c-0.8-1.2-1.3-2.6-1.6-4C1145.3,510.3,1145.2,510.1,1145.2,510z"/>
		<path class="st9" d="M1154.6,535.5c0.6-0.6,1.3-1.2,1.9-1.8c0.8-0.3,1.5-0.7,2.3-1c0.2,0.1,0.4,0.1,0.8,0.3
			c-0.4,0.1-0.7,0.2-0.9,0.2c-1.6,0.4-2.7,1.5-3.9,2.6c-0.2,0.2-0.5,0.4-0.8,0.6C1154.2,536.1,1154.4,535.8,1154.6,535.5z"/>
		<path class="st0" d="M1160.9,548.9c-0.2,0.5-0.4,0.9-0.6,1.4c-0.3-1.2-0.7-2.4-1-3.6c0.2,0,0.3,0,0.5,0
			C1160.1,547.5,1160.5,548.2,1160.9,548.9z"/>
		<path class="st5" d="M1146.9,507.6c-0.6,0.3-1.3,0.6-1.9,0.9c-0.2-0.3-0.2-0.5,0.1-0.7c0.4-0.3,0.8-0.6,1.2-0.9
			c0.5-0.3,1-0.6,1.5-0.8C1147.5,506.6,1147.2,507.1,1146.9,507.6z"/>
		<path class="st10" d="M1151,521.3c-0.3,0.3-0.6,0.7-0.9,1c-0.2-0.7-0.4-1.4-0.6-2.1C1150,520.6,1150.5,520.9,1151,521.3z"/>
		<path class="st10" d="M1148.4,516.3c0.2,0.2,0.5,0.5,0.7,0.7c-0.1,0.4-0.2,0.8-0.3,1.2C1148.8,517.5,1148.6,516.9,1148.4,516.3z"
			/>
		<path class="st9" d="M1157.3,546.3c0,0,0.1,0.1,0.1,0.1C1157.4,546.3,1157.4,546.3,1157.3,546.3z"/>
		<path class="st10" d="M1152.9,531.2c0,0,0.1,0.1,0.1,0.1C1153,531.3,1153,531.2,1152.9,531.2z"/>
		<path d="M1224.5,539.8c-0.1,0-0.3,0-0.4,0c0-0.1-0.1-0.2,0-0.3c0.4-1.4-0.1-2.5-1-3.5c0.7-1.8,1.5-3.5,2.1-5.3
			c1-2.8,1.9-5.6,2.7-8.4c0.7-2.4,1.4-4.9,2-7.4c0.6-2.3,1-4.7,1.5-7.1c0.4-2.3,0.9-4.6,1.1-6.9c0.3-2.3,0.3-4.6,0.4-6.9
			c0-0.9-0.1-1.7-0.2-2.6c-0.1-1.4-0.2-2.7-0.4-4.1c-0.2-1.3-0.5-2.6-0.7-3.8c-0.4-2.5-1.2-4.9-2.1-7.2c-1-2.9-2.3-5.7-3.9-8.4
			c-1.2-2-2.4-4-3.8-5.8c-1.5-2-3.2-3.8-4.9-5.7c-1-1.1-2.2-2.1-3.4-3c-1.1-0.9-2.3-1.9-3.6-2.6c-1.7-1.1-3.5-2.1-5.3-3
			c-2.2-1.1-4.5-1.8-6.8-2.3c-1.4-0.3-2.7-0.6-4.1-0.7c-3.1-0.3-6.2-0.1-9.3,0.8c-2.7,0.7-5.4,1.5-7.8,2.9c-1.6,0.9-3.2,1.8-4.8,2.8
			c-1.4,0.9-2.6,1.9-3.9,2.9c-1.1,0.9-2.1,1.9-3.1,2.8c-1.9,1.8-3.7,3.7-5.2,5.9c-1.3,1.8-2.6,3.7-3.8,5.6c-1.8,2.9-3.3,6.1-4.5,9.3
			c-0.4,1.2-0.8,2.5-1.2,3.7c-0.5,0.2-0.9,0.3-1.4,0.5c-0.6-0.7-1.1-1.5-1.7-2.2c0-0.1,0.1-0.1,0.1-0.2c0,0,0.1-0.1,0.1-0.1
			c0,0,0-0.1,0-0.1c0.1-0.2,0.1-0.4,0.2-0.5c0,0,0-0.1,0-0.1c0.2-0.5,0.4-1.1,0.7-1.6c0.8-1.9,1.6-3.7,2.4-5.6c1-2.1,2.2-4,3.5-5.9
			c1.4-2.1,2.9-4,4.6-5.8c0.8-0.9,1.6-1.7,2.5-2.5c1.2-1.1,2.4-2.2,3.7-3.2c1.3-1,2.7-1.9,4.1-2.9c1.6-1.2,3.5-2,5.2-2.9
			c2.6-1.4,5.3-2.1,8.1-2.9c2.2-0.6,4.4-0.9,6.6-1.1c3.3-0.3,6.5,0,9.7,0.8c2.7,0.7,5.3,1.5,7.7,2.8c1.6,0.8,3.1,1.7,4.6,2.7
			c1.4,0.9,2.7,2,4.1,3.1c1,0.8,1.9,1.6,2.7,2.5c1.9,1.9,3.7,3.9,5.2,6.1c1.3,1.8,2.5,3.7,3.6,5.6c2.3,4.2,4.2,8.6,5.4,13.2
			c0.5,2.2,1,4.3,1.4,6.5c0.3,1.7,0.4,3.4,0.5,5.1c0.1,1.4,0.2,2.7,0.2,4.1c0,1.7-0.1,3.5-0.3,5.2c-0.3,4-1.1,7.9-1.9,11.8
			c-0.8,3.8-1.7,7.6-2.6,11.4c-0.5,1.9-1,3.8-1.6,5.7c-0.9,2.9-2,5.7-3,8.6C1224.6,539.6,1224.5,539.7,1224.5,539.8z"/>
		<path class="st4" d="M1147,479.8c0.6,0.7,1.1,1.5,1.7,2.2c-0.7,0.6-1.2,1.3-1.3,2.2c-0.4,2.1,1.4,4,3.5,3.6
			c0.8-0.1,1.3-0.6,1.9-1.1l0,0c0,0,0.1,0.1,0.1,0.1c0,0,0,0,0,0c0.1,0,0.1,0.1,0.2,0.1c0,0,0,0,0,0c0.1,0.2,0.2,0.3,0.3,0.5
			c0.5,0.6,1.1,1.1,1.7,1.7c0,1.5,0,3,0.4,4.4c-0.8-0.3-1.6-0.7-2.4-0.9c-1.1-0.2-2.3-0.4-3.4-0.5c-0.2,0-0.4,0.2-0.6,0.4
			c-0.8-1.8-1.3-3.7-1.6-5.6c-0.2-1-0.3-2-0.5-3c-0.1-0.8-0.1-1.6-0.2-2.5c0-0.7-0.1-1.3-0.1-2c0,0,0.1,0,0.1-0.1
			C1146.8,479.5,1146.9,479.7,1147,479.8z"/>
		<path class="st10" d="M1146.7,481.5c0.1,0.8,0.1,1.6,0.2,2.5c-0.3-0.1-0.6-0.2-0.8-0.3C1146.3,482.9,1146.5,482.2,1146.7,481.5z"
			/>
		<path class="st11" d="M1147.4,478.8c-0.1,0.2-0.1,0.4-0.2,0.5C1147.3,479.2,1147.4,479,1147.4,478.8z"/>
		<path class="st11" d="M1147.2,479.4c0,0-0.1,0.1-0.1,0.1C1147.2,479.5,1147.2,479.5,1147.2,479.4z"/>
		<path class="st0" d="M1170.5,557.4c0.8-0.3,1.7-0.5,2.5-0.8c0.2,0.1,0.3,0.3,0.5,0.4c1,0.5,1.9,1.1,2.9,1.6c0.9,0.5,1.8,1,2.7,1.6
			c0.4,0.9,0.8,1.9,1.2,2.8c-0.1,0.1-0.3,0.3-0.4,0.4c-1.4,1-2.8,1.9-4.1,2.9c-0.4,0.3-0.8,0.5-1.2,0.7c-0.2,0.1-0.5,0.1-0.7,0
			c-2.9-1.4-5.7-2.9-8.6-4.4c-0.2-0.1-0.4-0.3-0.7-0.5c0.6-0.5,1.2-0.9,1.8-1.4c0.4-0.3,0.8-0.6,1.2-0.9c0.1-0.1,0.2-0.3,0.3-0.4
			C1168.8,558.7,1169.6,558.1,1170.5,557.4z"/>
		<path class="st0" d="M1207.9,567.5c0.7,0.5,1.3,1,2,1.4c0.9,0.6,1.8,1.2,2.6,1.9c0.6,0.4,1.1,0.9,1.7,1.3
			c-2.2,1.2-4.4,2.4-6.5,3.6c-0.4,0.2-0.8,0.3-1.1,0.6c-0.4,0.3-0.7,0.2-1.1-0.1c-0.7-0.4-1.5-0.8-2.3-1.2c-1.4-0.9-2.8-1.7-4.3-2.6
			c1.4-0.9,2.8-1.7,4.1-2.5c0.1,0.1,0.2,0.2,0.3,0.2l0,0c0,0,0,0.1,0,0.1c0.2,0.2,0.4,0.5,0.6,0.7c0.1,0.1,0.2,0.2,0.3,0.4
			c0.1-0.1,0.2-0.2,0.3-0.3C1205.6,569.8,1206.8,568.6,1207.9,567.5z"/>
		<path class="st0" d="M1196,573.7c-0.3,0.2-0.6,0.4-0.8,0.5c-1.3,0.8-2.6,1.5-3.9,2.4c-0.3,0.2-0.6,0.2-0.9,0
			c-1.6-1-3.3-1.9-4.9-2.9c-0.7-0.4-1.4-0.8-2.2-1.3c0.7-0.4,1.3-0.7,1.9-1.1c0.2-0.1,0.3-0.2,0.4-0.4c0.2-0.1,0.3-0.1,0.5-0.2
			c1-0.5,2-1.1,3-1.7c0.6-0.3,1.1-0.7,1.7-1.1c0.2,0.4,0.5,0.8,0.7,1.3c0.2,0.4,0.4,0.4,0.8,0.3c0.4-0.1,0.8-0.2,1.2-0.3
			c0.1,0.1,0.1,0.1,0.2,0.2c1.5,0.9,3,1.8,4.4,2.7c0.1,0.1,0.2,0.1,0.3,0.2c-0.2,0.1-0.3,0.2-0.5,0.3
			C1197.2,572.9,1196.6,573.3,1196,573.7z"/>
		<path class="st0" d="M1190.7,568c-0.6,0.4-1.1,0.7-1.7,1.1c-1,0.6-2,1.1-3,1.7c-0.1,0.1-0.3,0.1-0.5,0.2c-0.6-0.2-1.1-0.4-1.7-0.6
			c-2.6,4.5-3.9,3.2-4.2-1.8c-1.3-0.7-2.5-1.5-3.8-2.2c1.4-1,2.8-1.9,4.1-2.9c0.1-0.1,0.3-0.2,0.4-0.4c0.2,0.4,0.4,0.8,0.6,1.2
			c0.1,0.1,0.2,0.2,0.3,0.2c0.4,0,0.7-0.1,1.1-0.1c1.1-0.1,2.2-0.3,3.4-0.4c1.3,0.9,2.6,1.8,3.9,2.7c0.2,0.1,0.4,0.2,0.6,0.3
			C1190.4,567.3,1190.5,567.6,1190.7,568z"/>
		<path class="st0" d="M1196,573.7c0.6-0.4,1.1-0.7,1.7-1.1c0.2-0.1,0.3-0.2,0.5-0.3c-0.1-0.1-0.2-0.1-0.3-0.2
			c-1.5-0.9-3-1.8-4.4-2.7c-0.1,0-0.1-0.1-0.2-0.2c1.6-0.5,3-1.3,4.4-2.1c0.2-0.1,0.3-0.2,0.4-0.4c0,0,0,0,0,0
			c0.1,0,0.1-0.1,0.2-0.1c0.7-0.6,1.4-1.1,2-1.7c0.1,0.3,0.2,0.6,0.3,0.9c0.8,1.3,1.6,2.6,2.3,3.9c-1.4,0.8-2.7,1.7-4.1,2.5
			c1.4,0.9,2.9,1.8,4.3,2.6c-1.1-0.2-2.3-0.3-3.4-0.6c-1.1-0.2-2.1-0.5-3.2-0.7C1196.4,573.7,1196.2,573.7,1196,573.7z"/>
		<path d="M1170.5,557.4c-0.9,0.7-1.8,1.3-2.7,2c-0.5-0.6-0.9-1.1-1.4-1.7c-0.1-0.1-0.2-0.3-0.3-0.4
			C1167.7,557.3,1169.1,557.4,1170.5,557.4z"/>
		<path class="st12" d="M1147.8,498.3c0-1.4,0-2.9,0-4.3c0-0.2,0.1-0.3,0.1-0.5c0.2,0.3,0.3,0.5,0.5,0.8c0.8,1.1,1.6,2.2,2.3,3.3
			C1149.7,497.6,1148.8,497.9,1147.8,498.3z"/>
		<path class="st13" d="M1210.8,553.6c0.5,0.5,1.1,1.1,1.6,1.6c1.7,1.8,2.5,3.9,2.4,6.4c0,0.1,0,0.2-0.1,0.3
			c-2.8-1.1-5.4-2.5-7.3-4.9c0,0,0,0-0.1,0c0,0,0,0,0,0.1c0.2,0.7,0.4,1.4,0.6,2.1c0.7,2.5,0.3,4.9-0.6,7.4c-2.7-2.3-4.4-5-4.3-8.7
			c-0.4,3.6-1.9,6.6-5.2,8.5c-1.1-2.8-1.5-5.5,0-8.4c-2,2.4-4.6,3.4-7.6,3.6c0.4-4,2.6-6.7,6.1-8.4c-0.7,0.2-1.3,0.4-2,0.5
			c-1.1,0.2-2.2,0.6-3.3,0.4c-1.5-0.2-3-0.5-4.4-1.2c1.8-3,4.2-4.6,7.9-4.2c-1.5-0.4-3-0.8-4.4-1.3c-1.5-0.5-2.6-1.6-3.3-3.1
			c-0.1-0.2-0.1-0.4-0.2-0.6c2.9-1.1,5.8-1.4,8.7,0.2c-2.6-2.1-4.2-4.8-4.5-8.3c0.4,0,0.7,0,1,0.1c0.9,0.3,2,0.5,2.8,1
			c1.3,0.8,2.5,1.8,3.3,3.1c0.3,0.6,0.7,1.1,1.1,1.6c0,0,0,0.1,0.1,0.1c0,0,0,0,0.1,0c0,0-0.1-0.1-0.1-0.1c-0.2-0.7-0.4-1.5-0.5-2.2
			c-0.4-1.7-0.2-3.3,0.1-5c0.2-1,0.5-1.9,0.8-2.9c2.3,2.5,3.9,5.3,4,8.8c0.2-3.6,2.2-6.2,4.8-8.6c0.2,0.9,0.4,1.6,0.4,2.4
			c0.1,1.1,0.2,2.3,0.1,3.4c-0.1,0.9-0.4,1.8-0.7,2.7c-0.1,0.2-0.2,0.4-0.2,0.7c0,0-0.1,0.1-0.1,0.1c0,0-0.1,0.1-0.1,0.1
			c0,0,0,0,0,0c0,0,0-0.1,0-0.1c0,0,0.1-0.1,0.1-0.1c0.3-0.3,0.7-0.7,1-1c1.3-1.6,3-2.6,5.2-2.8c0.5,0,1,0,1.6,0
			c0.4,0,0.3,0.3,0.3,0.5c-0.2,1.7-0.7,3.3-2,4.6c-0.7,0.7-1.5,1.4-2.3,2c0,0-0.1,0-0.1,0.1c0,0,0,0,0,0.1c0,0,0.1-0.1,0.1-0.1
			c0.9-0.3,1.8-0.6,2.8-0.8c1.7-0.4,3.3,0,4.8,0.8c0.4,0.2,0.7,0.4,1.2,0.6c-2.6,2.1-5.2,4-8.6,4.4c3.4,0.4,5.7,2.5,8.2,4.6
			c-0.2,0.1-0.4,0.3-0.6,0.3c-1.4,0.5-2.8,0.8-4.3,0.8c-1.3-0.1-2.7-0.3-3.8-1C1211.2,553.7,1211,553.7,1210.8,553.6
			c0,0-0.1-0.1-0.1-0.1c0,0-0.1-0.1-0.1-0.1c0,0,0,0,0,0c0,0,0.1,0,0.1,0C1210.7,553.5,1210.8,553.6,1210.8,553.6z M1207.3,556.8
			C1207.3,556.8,1207.3,556.7,1207.3,556.8C1207.3,556.7,1207.2,556.8,1207.3,556.8C1207.3,556.8,1207.3,556.8,1207.3,556.8
			C1207.3,556.8,1207.3,556.8,1207.3,556.8z M1198,557.8L1198,557.8L1198,557.8L1198,557.8z"/>
		<path class="st4" d="M1209.3,533.2c0.1,0,0.2-0.1,0.3-0.1c0.2,0,0.3-0.1,0.5-0.1c1.3-0.7,2.5-1.5,3.9-1.9c2.4-0.9,4.9-0.9,7.4-0.9
			c0.4,0,0.5,0.2,0.5,0.5c0.2,1.6,0.1,3.2-0.3,4.8c-1.3,0-2.3,0.4-3,1.6c-0.9,1.7-0.2,4.3,2.1,4.6c-0.2,0.8-0.2,1.6,0.1,2.4
			c0,0,0,0-0.1,0.1c-1-0.4-2-1-3.1-1.2c-1.1-0.3-2.2-0.2-3.3-0.3c0.2-0.2,0.5-0.6,0.8-1c1-1.3,1.5-2.9,1.5-4.5
			c0-0.6-0.1-0.8-0.8-0.9c-1.5-0.1-3,0-4.4,0.9c-0.7,0.4-1.3,0.8-2,1.2C1209.6,536.7,1209.5,534.9,1209.3,533.2z"/>
		<path class="st4" d="M1225.7,545c0.3,0.4,0.5,0.8,0.8,1.1c0.4,0.5,0.9,1,1.4,1.5c0.3,0.3,0.3,0.5,0,0.7c-0.8,0.8-1.5,1.6-2.2,2.5
			c-1.4,1.6-3.3,2-5.2,2.6c-1.4-1.1-2.7-2.2-4.1-3.2c-0.6-0.5-1.4-0.7-2-1c2.4-1.1,4.8-2.5,6.8-4.4c0.6,0.8,1.4,1.3,2.6,1.2
			C1224.5,545.9,1225.2,545.5,1225.7,545z"/>
		<path class="st4" d="M1208.8,531.3c-0.3-0.3-0.6-0.4-1,0c-0.7,0.8-1.5,1.4-2.1,2.2c-0.8,1.1-1.6,2.2-2,3.5c0,0-0.1,0.1-0.1,0.1
			c-0.6-2.1-1.8-4-3.1-5.7c0.1-0.2,0.2-0.5,0.4-0.7c0.8-1,1.5-2,2.4-2.9c0.8-0.8,1.6-1.5,2.5-2.3c0.6-0.6,0.6-0.6,1.1,0.2
			C1207.9,527.5,1208.5,529.3,1208.8,531.3z"/>
		<path class="st4" d="M1191.2,562c1.5-0.3,3-0.6,4.3-1.4c0.3-0.2,0.7-0.4,1-0.6c-0.1,0.5-0.3,1.1-0.2,1.6c0.1,1.1,0.3,2.2,0.5,3.3
			c0.1,0.4,0.2,0.8,0.3,1.2c-1.1,0.7-2.2,1.4-3.3,2.1c-0.7,0.4-1.4,0.7-2.2,1.1c-0.3-1.1-0.6-2-0.7-3c-0.1-0.9-0.1-1.8-0.1-2.7
			C1190.9,563,1191.1,562.5,1191.2,562z"/>
		<path class="st4" d="M1203.9,570.9c-0.2-0.2-0.4-0.5-0.6-0.7c0,0,0-0.1,0-0.1c0,0,0,0,0,0c-0.3-0.8-0.6-1.5-0.8-2.3
			c-0.4-1.3-0.7-2.6-1.1-3.8c0.5-0.9,1.1-1.9,1.6-2.8c0.1,0.3,0.2,0.8,0.5,1.2c0.5,0.9,1.1,1.8,1.7,2.6c0.5,0.7,1.1,1.2,1.7,1.8
			C1205.9,568.2,1204.9,569.5,1203.9,570.9z"/>
		<path class="st0" d="M1223.9,540.3c0.9,0,1.6,0.6,1.9,1.4c0.4,1,0.3,1.9-0.3,2.7c-0.5,0.6-1.1,1-1.8,1c-1.6,0-2.9-1.5-2.6-3.1
			c0-0.2,0.1-0.4,0.1-0.5c0.6-0.2,1.3-0.5,1.9-0.8C1223.4,540.8,1223.6,540.5,1223.9,540.3z"/>
		<path class="st14" d="M1184.3,526.4c0.9-0.4,1.8-0.8,2.7-1.1c0.6-0.2,1.3-0.4,2-0.5c1.6-0.2,3.2-0.2,4.7-0.3c0.6,0,1.1,0,1.7,0.1
			c0.1,0,0.3,0.1,0.3,0.2c0.7,1.6,1.3,3.2,1.5,4.9c0.2,1.5,0.2,3,0.2,4.4c0,0.3-0.1,0.6,0,0.9c0.3-0.7,0.5-1.4,0.8-2.2
			c-0.1,0.6-0.2,1.3-0.3,1.9c-0.1,0.5-0.1,1-0.2,1.5c-0.2,0.4-0.4,0.9-0.7,1.4c0-0.4,0-0.6-0.1-0.9c0-1,0-2,0-3
			c0-1.8-0.3-3.5-0.7-5.2c-0.3-1-0.5-2.1-0.8-3.1c0-0.1-0.2-0.3-0.2-0.3c-1.3,0-2.5-0.2-3.8,0c-2.5,0.4-5.1,0.9-7.5,1.8
			c-0.1,0-0.1,0-0.2,0C1184.1,526.9,1184.2,526.6,1184.3,526.4z"/>
		<path class="st5" d="M1208.8,531.3c-0.3-2-1-3.8-2-5.5c-0.5-0.8-0.5-0.8-1.1-0.2c-0.8,0.8-1.7,1.5-2.5,2.3
			c-0.8,0.9-1.6,1.9-2.4,2.9c-0.2,0.2-0.2,0.5-0.4,0.7c-0.3-0.4-0.4-0.8-1-0.9c0.3-0.4,0.6-0.8,0.9-1.2c1.1-1.4,2.4-2.6,3.7-3.7
			c0.6-0.4,1.1-0.9,1.7-1.4c1.3,1.1,2.5,2.2,3.2,3.7c0.5,1.1,0.6,2.4,0.4,3.7c-0.1,0.5-0.2,0.9-0.2,1.4
			C1209.1,532.4,1209,531.8,1208.8,531.3z"/>
		<path class="st8" d="M1185.8,563.8c-1.1,0.1-2.2,0.3-3.4,0.4c-0.4,0-0.7,0.1-1.1,0.1c-0.1,0-0.3-0.1-0.3-0.2
			c-0.2-0.4-0.4-0.8-0.6-1.2c-0.4-0.9-0.8-1.9-1.2-2.8c-0.2-0.9-0.3-1.9-0.5-2.8c0.4,0.1,0.7,0.1,1.1,0.2c0.3,1.1,0.5,2.1,0.8,3.2
			c0.2,1,0.5,2.1,0.7,3.2c0.5-0.1,1.1-0.2,1.6-0.3c1.2-0.3,2.5-0.6,3.7-1c1-0.3,2-0.8,3-1.1c0.1,0.2,0.2,0.4,0.4,0.6
			c-0.9,0.4-1.7,0.9-2.6,1.3C1186.9,563.6,1186.3,563.7,1185.8,563.8z"/>
		<path class="st4" d="M1191.2,562c-0.1,0.5-0.3,1-0.3,1.5c0,0.9,0,1.8,0.1,2.7c0.1,1,0.4,1.9,0.7,3c0.8-0.4,1.5-0.7,2.2-1.1
			c1.1-0.7,2.2-1.4,3.3-2.1c0.2,0.4,0.4,0.7,0.9,0.7c-0.1,0.1-0.3,0.3-0.4,0.4c-1.4,0.8-2.8,1.6-4.4,2.1c-0.4,0.1-0.8,0.2-1.2,0.3
			c-0.4,0.1-0.6,0.1-0.8-0.3c-0.2-0.4-0.4-0.9-0.7-1.3c-0.1-0.4-0.3-0.7-0.4-1.1c-0.2-0.4-0.4-0.9-0.5-1.3c-0.1-0.5-0.3-1,0-1.6
			c0.3-0.6,0.6-1.3,0.9-1.9C1190.8,562.1,1191,562,1191.2,562z"/>
		<path class="st6" d="M1223.9,540.3c-0.3,0.2-0.5,0.5-0.8,0.7c-0.6,0.3-1.3,0.5-1.9,0.8c-0.2,0-0.4-0.1-0.6-0.1
			c-2.3-0.4-3-3-2.1-4.6c0.7-1.2,1.7-1.6,3-1.6c0.3,0.1,0.5,0.1,0.8,0.2c0.2,0.1,0.5,0.3,0.7,0.4c0.9,1,1.4,2.1,1,3.5
			c0,0.1,0,0.2,0,0.3C1224,539.9,1224,540.1,1223.9,540.3z M1221.2,541.1c1.4,0,2.5-1.1,2.5-2.6c0-1.5-1-2.6-2.5-2.6
			c-1.5,0-2.4,1.2-2.5,2.6C1218.6,540,1219.7,541.1,1221.2,541.1z"/>
		<path class="st0" d="M1190.7,562.1c-0.3,0.6-0.6,1.3-0.9,1.9c-0.3,0.5-0.1,1,0,1.6c0.1,0.5,0.3,0.9,0.5,1.3
			c-0.2-0.1-0.4-0.2-0.6-0.3c-1.3-0.9-2.6-1.8-3.9-2.7c0.6-0.2,1.2-0.2,1.7-0.5c0.9-0.4,1.7-0.9,2.6-1.3
			C1190.3,562.1,1190.5,562.1,1190.7,562.1z"/>
		<path class="st4" d="M1203.9,570.9c1-1.4,1.9-2.7,2.9-4.1c0.8,0.4,1,0.3,1.2-0.5c0.2-0.8,0.4-1.6,0.6-2.3c0.1-0.2,0.3-0.3,0.3-0.5
			c0.2-0.5,0.3-1,0.4-1.4c0.1,1.2,0.1,2.4-0.3,3.5c-0.3,0.7-0.8,1.3-1.2,2c-1.1,1.2-2.3,2.3-3.4,3.5c-0.1,0.1-0.2,0.2-0.3,0.3
			C1204.1,571.1,1204,571,1203.9,570.9z"/>
		<path class="st4" d="M1201.4,563.9c0.4,1.3,0.7,2.6,1.1,3.8c0.2,0.8,0.5,1.6,0.8,2.3c-0.1-0.1-0.2-0.2-0.3-0.2
			c-0.8-1.3-1.6-2.6-2.3-3.9c-0.2-0.3-0.2-0.6-0.3-0.9C1200.7,564.7,1201,564.3,1201.4,563.9z"/>
		<path class="st15" d="M1209.4,562c-0.1,0.5-0.3,1-0.4,1.4c-0.1,0.2-0.2,0.3-0.3,0.5c0.2-1.6,0.2-3.2-0.2-4.8c0,0,0.1-0.1,0.1-0.1
			c0.2,0.2,0.5,0.4,0.7,0.7C1209.4,560.5,1209.4,561.3,1209.4,562z"/>
		<path class="st15" d="M1197.2,536.8c0,0.3,0,0.6,0.1,0.9c0.2-0.5,0.4-1,0.7-1.4c0,0.8,0,1.6,0,2.3c-0.3-0.4-0.7-0.8-1.1-1.2
			C1196.9,537.2,1197.1,537,1197.2,536.8z"/>
		<path class="st6" d="M1215.7,536.9c-0.5,0-1,0-1.6,0C1214.5,536.6,1215.4,536.6,1215.7,536.9z"/>
		<path class="st15" d="M1210.6,560.6c-0.1,0-0.1-0.1-0.2-0.1C1210.5,560.5,1210.5,560.5,1210.6,560.6z"/>
		<path class="st8" d="M1198.3,566.7c-0.1,0-0.1,0.1-0.2,0.1C1198.2,566.8,1198.3,566.7,1198.3,566.7z"/>
		<path class="st14" d="M1198.4,532.9C1198.4,532.9,1198.4,532.9,1198.4,532.9C1198.4,532.9,1198.5,532.9,1198.4,532.9
			C1198.5,532.9,1198.4,532.9,1198.4,532.9z"/>
		<path class="st15" d="M1210.7,560.7c0,0-0.1-0.1-0.1-0.1C1210.6,560.6,1210.7,560.6,1210.7,560.7z"/>
		<path class="st15" d="M1220.7,544.1c0,0,0,0.1,0,0.1C1220.7,544.2,1220.7,544.2,1220.7,544.1
			C1220.7,544.1,1220.7,544.1,1220.7,544.1z"/>
		<path class="st15" d="M1193,542.1c0,0,0,0.1,0,0.1C1193,542.2,1193,542.2,1193,542.1C1193,542.2,1193,542.1,1193,542.1z"/>
		<path class="st6" d="M1179.8,557.6c-0.4-0.1-0.7-0.1-1.1-0.2c-0.3-0.2-0.7-0.4-0.9-0.7c-0.6-0.5-0.9-1.2-1.1-2c0-0.2,0-0.3,0-0.5
			c0.1-0.4,0.2-0.9,0.4-1.3c0.8-1.6,2.7-2.1,4.2-1.3c1.5,0.8,2,2.8,1.1,4.3C1181.8,556.9,1180.9,557.5,1179.8,557.6z M1179.7,557
			c1.1,0.1,2.6-1.1,2.5-2.6c0-1.6-1.1-2.6-2.6-2.6c-1.4,0-2.4,1.1-2.4,2.6C1177.2,555.7,1178.6,557.1,1179.7,557z"/>
		<path class="st13" d="M1179.5,530.6c0.9-0.3,1.7-0.6,2.6-0.8c1.9-0.5,3.6-0.2,5.1,1.1c0.2,0.2,0.4,0.3,0.5,0.5
			c0.1,0.1,0.1,0.4,0.1,0.5c-0.2,0.3-0.4,0.6-0.6,0.9c-1.1,1.2-2.5,2-4.1,2.1c-1,0.1-2.1,0.2-3.1,0.3c0.7,0.1,1.4,0.2,2.1,0.5
			c0.7,0.3,1.4,0.6,2,1.1c0.6,0.5,1.1,1.1,1.6,1.7c0.5,0.6,0.8,1.3,1.2,2c-3.1,1.1-5.9,0.6-8.8-0.6c3.1,2,4.3,4.9,4.2,8.7
			c-0.6-0.3-1.2-0.5-1.8-0.7c-2.1-0.8-3.5-2.3-4.8-4c-0.2-0.3-0.5-0.6-0.7-0.9c0,0,0,0,0,0c0,0,0,0,0,0c0,0,0,0,0,0
			c0.1,0.4,0.3,0.8,0.4,1.2c0.8,2.2,0.7,4.3-0.4,6.4c-0.2,0.4-0.4,0.8-0.6,1.3c-1.4-1.1-4.2-4.2-4-8.5c-0.3,3.5-2.1,5.9-5.3,7.4
			c-1.4-3-0.9-5.8,0.8-8.6c-2.2,2.5-4.7,4.3-8.2,3.6c0.1-3.6,2-5.9,5-7.5c-2.9,0.8-5.6,0.1-8.2-1.4c2.1-2.3,4.5-3.8,7.8-3.6
			c-0.7-0.2-1.4-0.4-2.1-0.7c-0.8-0.3-1.7-0.6-2.4-1.1c-1.1-0.7-1.9-1.8-2.4-3.1c-0.1-0.3,0.1-0.5,0.3-0.6c1.7-0.7,3.4-0.9,5.1-0.2
			c0.9,0.3,1.7,0.8,2.6,1.2c0.2,0.1,0.3,0.2,0.6,0.2c-2.4-2-3.2-4.7-3.4-7.7c3.6,0,5.4,2.4,7.2,4.9c-1-3.1-0.4-6,0.8-9
			c2.2,2.6,3.6,5.4,3.5,8.8c0.6-3.3,2.6-5.7,5-8.1c0.1,0.8,0.3,1.4,0.3,2.1c0.3,2,0.2,4-0.5,6c-0.2,0.6-0.5,1.2-0.7,1.8
			c0,0,0,0.1-0.1,0.1c0,0,0,0,0,0c0,0,0-0.1,0.1-0.1c0.5-0.5,1-1,1.5-1.6c1.4-1.6,3.2-2.5,5.3-2.8c0.6-0.1,1.1-0.1,1.8-0.1
			c0,0.2,0,0.3,0,0.4c-0.5,1.5-1.1,2.9-2.1,4.2c-0.8,1-1.8,1.7-2.8,2.4C1179.7,530.4,1179.6,530.5,1179.5,530.6c-0.1,0-0.1,0-0.1,0
			c0,0,0,0,0,0.1C1179.4,530.7,1179.5,530.6,1179.5,530.6z M1163,533.5C1163,533.4,1163,533.4,1163,533.5c-0.1-0.1-0.3-0.1-0.5-0.2
			c0,0,0,0.1,0,0.1C1162.6,533.4,1162.8,533.4,1163,533.5z M1176.1,528.2C1176.1,528.2,1176,528.2,1176.1,528.2c-0.1,0-0.1,0-0.1,0
			C1176,528.3,1176,528.3,1176.1,528.2C1176.1,528.3,1176.1,528.2,1176.1,528.2z M1163,538.2C1163,538.2,1163,538.2,1163,538.2
			C1163,538.2,1162.9,538.2,1163,538.2C1162.9,538.2,1162.9,538.2,1163,538.2C1163,538.2,1163,538.2,1163,538.2z M1167.9,526.4
			L1167.9,526.4L1167.9,526.4L1167.9,526.4z M1168,526.5L1168,526.5L1168,526.5L1168,526.5z M1164.1,529.1L1164.1,529.1
			L1164.1,529.1L1164.1,529.1z M1177.8,539.9L1177.8,539.9L1177.8,539.9L1177.8,539.9z"/>
		<path class="st4" d="M1176.3,515.9c0.1,0,0.3,0,0.4,0c0.2,0,0.4,0,0.6,0c1.2,0,2.4-0.2,3.6-0.1c1.5,0,3,0.2,4.6,0.3
			c0.1,0.1,0.1,0.3,0.2,0.4c-0.1,1.5-0.2,2.9-0.3,4.4c-0.1,0.7-0.3,1.4-0.5,2.1c-2.2,0-4.2,0.5-6,1.7c-0.4,0.3-0.7,0.6-1.1,0.9
			c0.1-0.5,0.2-1,0.3-1.5c0.3-2,0.1-3.9-0.3-5.9c-0.1-0.6-0.6-0.7-1-0.4c-1.6,1.3-2.7,2.9-3.8,4.6c-0.2,0.3-0.2,0.5-0.3,0.7
			c-0.5-1-0.9-2.2-1.4-3.2c-0.6-1.1-1.4-2.1-2.1-3.1c-0.1-0.1-0.4-0.1-0.6-0.2c0.6-1.7,0.8-3.5,0.2-5.3c0.8,0.3,1.6,0.7,2.5,0.9
			c1,0.2,1.9,0.5,2.9,0.3c0.4-0.1,0.5-0.3,0.5-0.7c-0.1-2.4-0.9-4.3-2.9-5.7c0.8-0.2,1.7-0.3,2.6-0.5c0.5-0.1,0.9-0.4,1.3-0.5
			c0.2,0.2,0.5,0.4,0.7,0.5c1,0.9,2,1.8,3,2.7c0.8,0.7,1.4,1.5,2.2,2.3c-0.1,0.2-0.3,0.4-0.4,0.6c0,0-0.1,0.1-0.1,0.1
			c0,0-0.1,0-0.1,0.1c-0.2,0.1-0.4,0.2-0.5,0.3c-1.1,0.8-2.2,1.6-3.3,2.4c-1.4,1-2.8,2.1-4.2,3.1c-0.4,0.3-0.7,0.5-1.1,0.8
			c0,0-0.1,0.1-0.1,0.1c0,0-0.1,0-0.1,0c0,0,0,0,0,0c0,0,0.1-0.1,0.1-0.1c0,0,0.1-0.1,0.1-0.1c0.1,0,0.2,0,0.3-0.1
			c1.3-0.6,2.7-1.3,4-1.9c0.1,0,0.2-0.1,0.2-0.2C1176.2,515.9,1176.3,515.9,1176.3,515.9C1176.4,515.9,1176.3,515.9,1176.3,515.9z"
			/>
		<path class="st4" d="M1156.6,531.3c-1.8-0.4-3.6-1.2-5.1-2.4c-0.7-0.6-1.4-1.2-2.2-1.8c-0.2-0.2-0.3-0.4-0.1-0.7
			c0.7-1.3,1.4-2.6,2.5-3.6c0.3-0.3,0.6-0.6,0.9-0.9c0.2,0.3,0.3,0.7,0.5,0.9c1.4,1.8,4.1,1.4,5.1-0.7c0.8-1.7,0.1-3.6-1.5-4.2
			c-0.5-0.2-1.2-0.1-1.7-0.2c-0.3-1.2-0.8-2.1-2-2.5c1.9-0.5,3.4-1.7,4.8-3.1c0,0.2-0.1,0.5-0.1,0.7c0,1.8,0.4,3.4,1.2,5
			c0.3,0.6,0.7,0.6,1.1,0.2c0.9-1,1.8-2.1,2.6-3.2c0.4-0.5,0.5-1.1,0.8-1.8c0.2,0.4,0.4,0.8,0.7,1.1c0.8,0.8,1.6,1.5,2.5,2.3
			c0.2,0.2,0.4,0.4,0.7,0.6c0.2,0.1,0.5,0.1,0.7,0.1c-0.3,1.2-0.7,2.4-1,3.6c-0.2,0.9-0.2,1.9-0.4,2.9c-0.4-0.4-0.7-0.8-1.1-1.1
			c-1.1-1.2-2.6-1.7-4.2-1.9c-0.1,0-0.3,0-0.4,0c-0.6-0.1-1,0.1-0.9,0.8c0.1,1.1,0.3,2.3,0.6,3.4c0.2,0.8,0.6,1.6,1,2.5
			c-0.1,0-0.3-0.1-0.5-0.1c-2-0.6-3.9-0.5-5.8,0.3c-0.7,0.3-0.8,0.6-0.5,1.2c0.4,0.7,0.9,1.4,1.3,2.2
			C1156.4,531,1156.5,531.1,1156.6,531.3z"/>
		<path class="st4" d="M1157.2,544.8c-0.6-0.2-1.3-0.3-1.9-0.5c-0.9-0.3-1.8-0.7-2.7-1c-0.3-0.1-0.3-0.2-0.2-0.5
			c0.4-1.7,1-3.3,2-4.8c0.1-0.1,0.1-0.3,0.2-0.4c1.3,0.5,2.6,0.9,3.9,1.3c0.5,0.2,1.1,0.2,1.8,0.3
			C1158.5,540.7,1157.6,542.6,1157.2,544.8z"/>
		<path class="st14" d="M1184.8,522.8c0.2-0.7,0.4-1.4,0.5-2.1c0.2-1.5,0.2-2.9,0.3-4.4c0.2,0.9,0.5,1.8,0.6,2.7
			c0.1,1.1,0.1,2.2-0.3,3.3c-0.2,0.5-0.4,0.9-0.6,1.3C1185.4,523.3,1185.3,522.9,1184.8,522.8z"/>
		<path class="st12" d="M1158.8,532.7c-0.8,0.3-1.5,0.7-2.3,1c-0.2-0.5-0.4-0.9-0.5-1.4C1156.9,532.5,1157.9,532.6,1158.8,532.7
			C1158.8,532.8,1158.8,532.8,1158.8,532.7z"/>
		<path class="st16" d="M1163.9,546.1c-0.3,0-0.5,0.1-0.8,0.1c0,0,0,0,0,0c0.3-0.2,0.6-0.5,0.9-0.7
			C1163.9,545.7,1163.9,545.9,1163.9,546.1z"/>
		<path class="st15" d="M1182.4,529.2C1182.4,529.2,1182.4,529.2,1182.4,529.2C1182.4,529.2,1182.4,529.2,1182.4,529.2
			C1182.4,529.2,1182.4,529.2,1182.4,529.2z"/>
		<path class="st17" d="M1169.5,500.8c1,0.1,2,0,3,0.2c1.1,0.2,1.9,0.8,2.7,1.6c0.4,0.4,0.8,0.8,1.3,1.3c-2.5,1.5-5.1,2-8,1.3
			c3.3,1,5.4,3,5.5,6.6c-2.9,0.4-5.1-1-7.2-2.8c0.8,1.1,1.4,2.3,1.5,3.6c0.2,1.3-0.1,2.6-0.6,3.9c-2.3-1.4-4-3.3-4.9-5.9
			c0.5,3.1-1.4,5.1-3.4,7.1c-0.7-1.4-1.3-2.8-1.2-4.3c0.1-1.4,0.3-2.9,0.5-4.4c-1.3,3-3.4,5-6.8,5.8c-0.5-3.4,0.9-5.9,3.3-8.1
			c-0.3,0.1-0.6,0.3-0.9,0.4c-1.1,0.4-2.1,0.9-3.2,1.2c-1,0.3-1.9,0.1-2.8-0.4c-0.3-0.1-0.5-0.2-0.8-0.3c1.3-2.7,3.4-4.4,6.4-4.8
			c-3,0.2-5.4-0.9-7.5-3c0.8-0.9,1.8-1.3,2.8-1.6c1.5-0.4,2.9-0.3,4.4,0.2c0.2,0.1,0.4,0.1,0.5,0.1c0,0,0.1,0.1,0,0c0.1,0,0,0,0,0
			c-0.6-0.4-1.3-0.8-1.9-1.3c-1.3-1.1-2.2-2.5-2.5-4.2c0-0.1,0-0.2,0-0.5c0.7,0.1,1.4,0.1,2,0.2c0.7,0.1,1.4,0.3,2,0.5
			c1.2,0.4,2.2,1.3,3.2,2.1c0,0,0,0,0.1,0.1c0,0,0-0.1,0-0.1c-0.5-0.9-1.1-1.8-1.2-2.9c-0.1-1.4-0.1-2.8-0.1-4.2
			c0-0.3,0.1-0.6,0.1-1c2.4,1.9,4.3,3.9,4.8,7c-0.1-3,1.1-5.6,2.8-8.1c1.5,3,2,6,1.1,9.2c0.7-1.4,1.4-2.8,2.6-4
			c1.2-1.2,2.5-1.8,4.3-2.2c-0.1,1-0.2,1.9-0.4,2.7c-0.4,1.7-1.2,3.1-2.5,4.3c-0.1,0.1-0.2,0.2-0.2,0.3c-0.1,0.1-0.1,0.2-0.2,0.2
			c0,0,0,0,0,0c0,0,0,0,0,0c0,0,0,0,0-0.1c0.1-0.1,0.1-0.1,0.2-0.2c0.9-0.4,1.7-1,2.6-1.3c1.4-0.4,2.9-0.2,4.2,0.4
			c0.3,0.1,0.4,0.3,0.3,0.7c-0.3,1.1-1.1,1.9-1.9,2.6c-1,0.8-2.3,1.3-3.5,1.6C1169.8,500.7,1169.7,500.8,1169.5,500.8
			c-0.1,0-0.1,0-0.2,0c0,0,0,0,0,0.1C1169.4,500.9,1169.4,500.9,1169.5,500.8z M1159,508.9C1158.9,508.9,1158.9,508.9,1159,508.9
			C1158.9,508.9,1158.9,508.9,1159,508.9C1158.9,508.9,1158.9,508.9,1159,508.9C1158.9,508.9,1158.9,508.9,1159,508.9z"/>
		<path class="st18" d="M1152.5,520.9c-0.9,0.1-1.8-0.1-2.4-0.8c-0.9-1.1-0.9-2.6,0.2-3.7c0.9-1,2.6-0.9,3.5,0.2
			c0.3,0.4,0.4,0.9,0.6,1.4C1153.2,518.5,1152.6,519.5,1152.5,520.9z"/>
		<path class="st6" d="M1152.5,520.9c0.1-1.3,0.7-2.4,1.9-2.9c0.2,0,0.4-0.1,0.6-0.1c0.6,0.1,1.2,0,1.7,0.2c1.6,0.6,2.3,2.6,1.5,4.2
			c-0.9,2.1-3.7,2.4-5.1,0.7c-0.2-0.3-0.3-0.6-0.5-0.9c0-0.2-0.1-0.4-0.1-0.6C1152.5,521.2,1152.5,521,1152.5,520.9z M1155.6,518.3
			c-1.4,0-2.6,1.1-2.5,2.6c0.1,1.6,1,2.6,2.5,2.6c1.5,0,2.5-1.1,2.5-2.6C1158.1,519.4,1157,518.3,1155.6,518.3z"/>
		<path class="st9" d="M1181.3,510.7c-0.7-0.8-1.4-1.6-2.2-2.3c-1-0.9-2-1.8-3-2.7c-0.2-0.2-0.4-0.4-0.7-0.5
			c0.3-0.1,0.6-0.3,0.8-0.4c0.9,0.7,1.8,1.4,2.6,2.2c0.9,0.9,1.8,2,2.6,3C1181.9,510.2,1181.5,510.4,1181.3,510.7z"/>
		<path class="st12" d="M1148.5,505.1c-0.1-0.9-0.3-1.7-0.4-2.6c0-0.1,0-0.3,0-0.4c0.3,0.2,0.6,0.4,0.9,0.5c0.6,0.3,1.3,0.5,1.8,0.7
			C1150,503.9,1149.2,504.5,1148.5,505.1z"/>
		<path class="st9" d="M1153.1,486.9c0.6,0.3,1.2,0.6,1.8,0.9c0.1,0,0.2,0.1,0.3,0.1c0,0.4-0.1,0.7-0.1,1.1
			c-0.6-0.6-1.1-1.1-1.7-1.7C1153.2,487.2,1153.1,487.1,1153.1,486.9z"/>
		<path class="st15" d="M1152.8,508.7C1152.8,508.7,1152.9,508.7,1152.8,508.7C1152.9,508.7,1152.9,508.7,1152.8,508.7
			C1152.9,508.7,1152.8,508.7,1152.8,508.7z"/>
		<path d="M1176.7,554.7c0.2,0.8,0.5,1.5,1.1,2c0.3,0.2,0.6,0.4,0.9,0.7c0.2,0.9,0.3,1.9,0.5,2.8c-0.9-0.5-1.8-1-2.7-1.6
			c-1-0.5-1.9-1.1-2.9-1.6c-0.2-0.1-0.3-0.3-0.5-0.4C1174.3,556,1175.5,555.3,1176.7,554.7z"/>
		<path class="st0" d="M1160.9,548.9c-0.4-0.7-0.7-1.4-1.1-2.2c0.9-0.1,1.9-0.2,2.7-0.3C1162,547.3,1161.4,548.1,1160.9,548.9z"/>
		<path class="st16" d="M1163.1,546.2C1163,546.3,1163,546.3,1163.1,546.2C1163,546.3,1163,546.3,1163.1,546.2
			C1163,546.2,1163,546.2,1163.1,546.2C1163.1,546.2,1163.1,546.2,1163.1,546.2z"/>
		<path class="st7" d="M1150.1,481.5c0.9,0,1.7,0.2,2.3,0.8c0.8,0.8,1.2,1.9,0.9,3.1c-0.1,0.5-0.4,0.9-0.5,1.3
			c-0.5,0.5-1.1,0.9-1.9,1.1c-2.1,0.4-4-1.5-3.5-3.6c0.2-0.9,0.7-1.6,1.3-2.2C1149.2,481.8,1149.6,481.7,1150.1,481.5z
			 M1150.4,482.1c-1.4-0.2-2.6,1.5-2.6,2.5c0,1.5,1.1,2.6,2.5,2.6c1.5,0,2.5-1,2.5-2.5C1152.9,483.5,1151.6,481.9,1150.4,482.1z"/>
		<path class="st9" d="M1152.9,486.8c0.1,0,0.1,0.1,0.2,0.1C1153,486.9,1152.9,486.8,1152.9,486.8z"/>
		<path class="st9" d="M1152.7,486.7c0,0,0.1,0.1,0.1,0.1C1152.8,486.8,1152.8,486.7,1152.7,486.7z"/>
		<path class="st8" d="M1203.3,570.1C1203.3,570.1,1203.3,570.2,1203.3,570.1C1203.3,570.2,1203.3,570.1,1203.3,570.1z"/>
		<path class="st1" d="M1222.3,535.6c-0.3-0.1-0.5-0.1-0.8-0.2c0.4-1.6,0.5-3.2,0.3-4.8c0-0.3-0.2-0.5-0.5-0.5c-2.5,0-5,0-7.4,0.9
			c-1.4,0.5-2.6,1.3-3.9,1.9c-0.1,0.1-0.3,0.1-0.5,0.1c0.5-0.6,1-1.1,1.5-1.7c1-1.1,2.2-1.7,3.5-2.1c0.4-0.1,0.8-0.2,1.3-0.2
			c1.1,0,2.3,0,3.4,0.1c0.8,0.1,1.7,0.3,2.5,0.5c0.1,0,0.2,0.2,0.3,0.3c0.5,1.4,0.7,2.8,0.6,4.2
			C1222.6,534.7,1222.4,535.1,1222.3,535.6z"/>
		<path class="st5" d="M1176.2,516c-0.1,0.1-0.1,0.1-0.2,0.2c-1.3,0.6-2.7,1.3-4,1.9c-0.1,0-0.2,0.1-0.3,0.1l0,0
			c0.4-0.3,0.7-0.6,1.1-0.8c1.4-1,2.8-2.1,4.2-3.1c1.1-0.8,2.2-1.6,3.3-2.4c0.2-0.1,0.4-0.2,0.5-0.3c-0.7,0.8-1.3,1.5-2,2.2
			c-0.7,0.7-1.5,1.4-2.3,2.2c0,0,0,0,0,0C1176.3,515.9,1176.2,515.9,1176.2,516z"/>
		<path class="st14" d="M1185.5,516c-1.5-0.1-3-0.2-4.6-0.3c-1.2,0-2.4,0.1-3.6,0.1c-0.2,0-0.4,0-0.6,0c1.2-0.5,2.4-0.9,3.7-0.9
			c1.4,0,2.9,0.1,4.2,0.6C1184.9,515.7,1185.2,515.8,1185.5,516z"/>
		<path class="st5" d="M1180.7,511.4c0,0,0.1-0.1,0.1-0.1C1180.8,511.3,1180.8,511.4,1180.7,511.4z"/>
		<path class="st3" d="M1211.7,544.1c0,0-0.1,0.1-0.1,0.1c0,0,0,0,0-0.1C1211.6,544.1,1211.6,544.1,1211.7,544.1
			C1211.7,544.1,1211.7,544.1,1211.7,544.1z"/>
		<path class="st3" d="M1199.2,541.4c0,0,0.1,0.1,0.1,0.1c0,0,0,0-0.1,0C1199.2,541.5,1199.1,541.5,1199.2,541.4
			C1199.1,541.4,1199.2,541.4,1199.2,541.4z"/>
		<path class="st3" d="M1207.9,540.8c0,0,0,0.1,0,0.1c0,0,0,0,0,0C1207.9,540.9,1207.9,540.9,1207.9,540.8L1207.9,540.8z"/>
		<path class="st3" d="M1210.7,553.5c0,0-0.1,0-0.1,0c0,0,0,0,0,0C1210.6,553.5,1210.7,553.5,1210.7,553.5L1210.7,553.5z"/>
		<path class="st3" d="M1207.3,556.8C1207.3,556.8,1207.3,556.8,1207.3,556.8C1207.3,556.8,1207.3,556.8,1207.3,556.8
			C1207.2,556.8,1207.3,556.7,1207.3,556.8C1207.3,556.7,1207.3,556.8,1207.3,556.8z"/>
		<path class="st3" d="M1207.4,557.1C1207.4,557.1,1207.4,557.1,1207.4,557.1C1207.4,557,1207.4,557.1,1207.4,557.1
			C1207.4,557.1,1207.4,557.1,1207.4,557.1z"/>
		<path class="st3" d="M1210.7,553.5c0,0,0.1,0.1,0.1,0.1c0,0,0,0,0,0C1210.8,553.6,1210.7,553.5,1210.7,553.5
			C1210.7,553.5,1210.7,553.5,1210.7,553.5z"/>
		<polygon class="st3" points="1198,557.8 1198,557.7 1198,557.7 		"/>
		<path class="st3" d="M1207.9,540.8c0,0,0.1-0.1,0.1-0.1c0,0,0,0,0,0C1208,540.8,1208,540.8,1207.9,540.8
			C1207.9,540.8,1207.9,540.8,1207.9,540.8z"/>
		<path class="st18" d="M1221.2,541.1c-1.4,0-2.5-1.1-2.5-2.6c0-1.5,1-2.6,2.5-2.6c1.5,0,2.4,1.1,2.5,2.6
			C1223.7,540,1222.6,541.1,1221.2,541.1z"/>
		<path class="st0" d="M1179.7,557c-1.1,0.1-2.5-1.3-2.5-2.6c0-1.4,1.1-2.5,2.4-2.6c1.5,0,2.6,1,2.6,2.6
			C1182.3,555.9,1180.8,557.1,1179.7,557z"/>
		<path class="st7" d="M1163,533.5c-0.2,0-0.3,0-0.5,0c0,0,0-0.1,0-0.1C1162.7,533.3,1162.8,533.4,1163,533.5
			C1163,533.4,1163,533.4,1163,533.5z"/>
		<path class="st6" d="M1176.1,528.2C1176.1,528.2,1176.1,528.3,1176.1,528.2c-0.1,0.1-0.1,0.1-0.1,0
			C1176,528.2,1176,528.2,1176.1,528.2C1176,528.2,1176.1,528.2,1176.1,528.2z"/>
		<path class="st6" d="M1179.5,530.6c0,0-0.1,0.1-0.1,0.1c0,0,0,0,0-0.1C1179.4,530.6,1179.5,530.6,1179.5,530.6
			C1179.5,530.6,1179.5,530.6,1179.5,530.6z"/>
		<path class="st6" d="M1176.3,527.9c0,0,0,0.1-0.1,0.1c0,0,0,0,0,0C1176.2,527.9,1176.2,527.9,1176.3,527.9
			C1176.2,527.8,1176.3,527.9,1176.3,527.9z"/>
		<path class="st6" d="M1163,538.2C1163,538.2,1163,538.2,1163,538.2C1162.9,538.2,1162.9,538.2,1163,538.2
			C1162.9,538.2,1163,538.2,1163,538.2C1163,538.2,1163,538.2,1163,538.2z"/>
		<polygon class="st6" points="1167.9,526.4 1167.9,526.3 1167.9,526.3 		"/>
		<polygon class="st6" points="1168,526.5 1168,526.5 1168,526.6 		"/>
		<polygon class="st6" points="1164.1,529.1 1164.1,529.1 1164.1,529.1 		"/>
		<path class="st6" d="M1174.9,543C1174.9,543,1174.9,542.9,1174.9,543C1174.9,542.9,1174.9,542.9,1174.9,543
			C1174.9,542.9,1174.9,543,1174.9,543L1174.9,543z"/>
		<polygon class="st6" points="1177.8,539.9 1177.8,539.8 1177.9,539.8 		"/>
		<path class="st18" d="M1176.2,516c0.1,0,0.1-0.1,0.2-0.1C1176.3,515.9,1176.2,515.9,1176.2,516z"/>
		<path class="st5" d="M1171.4,518.2c0,0-0.1,0.1-0.1,0.1c0,0,0,0,0,0C1171.3,518.2,1171.4,518.2,1171.4,518.2
			C1171.4,518.2,1171.4,518.2,1171.4,518.2z"/>
		<path class="st5" d="M1171.6,518.1c0,0-0.1,0.1-0.1,0.1c0,0,0,0,0,0C1171.5,518.2,1171.5,518.1,1171.6,518.1
			C1171.5,518.1,1171.6,518.1,1171.6,518.1z"/>
		<path class="st7" d="M1168.3,496.6c-0.1,0.1-0.1,0.1-0.2,0.2c0,0,0,0,0,0C1168.1,496.8,1168.2,496.7,1168.3,496.6
			C1168.3,496.6,1168.3,496.6,1168.3,496.6z"/>
		<path class="st7" d="M1169.5,500.8c-0.1,0-0.1,0.1-0.2,0.1c0,0,0,0,0-0.1C1169.4,500.8,1169.4,500.8,1169.5,500.8
			C1169.5,500.8,1169.5,500.8,1169.5,500.8z"/>
		<path class="st7" d="M1154.1,498.7C1154.1,498.7,1154.2,498.7,1154.1,498.7C1154.1,498.7,1154.1,498.7,1154.1,498.7
			C1154.1,498.7,1154.1,498.7,1154.1,498.7z"/>
		<path class="st7" d="M1159,508.9C1158.9,508.9,1158.9,508.9,1159,508.9C1158.9,508.9,1158.9,508.9,1159,508.9
			C1158.9,508.9,1158.9,508.9,1159,508.9C1158.9,508.9,1158.9,508.9,1159,508.9z"/>
		<path class="st7" d="M1168.1,496.8C1168.1,496.9,1168,496.9,1168.1,496.8C1168,496.9,1168,496.9,1168.1,496.8
			C1168,496.9,1168.1,496.8,1168.1,496.8C1168.1,496.8,1168.1,496.8,1168.1,496.8z"/>
		<path class="st7" d="M1157,495.5C1157,495.5,1157,495.6,1157,495.5C1157,495.6,1156.9,495.5,1157,495.5
			C1156.9,495.5,1156.9,495.5,1157,495.5z"/>
		<path class="st17" d="M1155.6,518.3c1.4,0,2.5,1.1,2.5,2.6c0,1.5-1,2.6-2.5,2.6c-1.5,0-2.4-1.1-2.5-2.6
			C1153,519.4,1154.1,518.3,1155.6,518.3z"/>
		<path class="st17" d="M1150.4,482.1c1.2-0.2,2.5,1.4,2.4,2.6c-0.1,1.5-1,2.5-2.5,2.5c-1.4,0-2.5-1.1-2.5-2.6
			C1147.8,483.6,1149,481.9,1150.4,482.1z"/>
	</g>
</g>
<g id="fender_00000001647086498867495320000010807664077084411807_">
	<g id="fender">
		<ellipse class="st19" cx="1135.7" cy="577.1" rx="33.9" ry="23.8"/>
		<rect x="1078.6" y="577.1" class="st20" width="110" height="26.2"/>
	</g>
</g>
<g id="Post">
	<line class="st21" x1="1076.8" y1="381.9" x2="1076.8" y2="593.8"/>
</g>
<g id="Front_Wheel">
	<ellipse class="st22" cx="1136.4" cy="591.9" rx="27.5" ry="26.6"/>
	<ellipse class="st23" cx="1137" cy="592.5" rx="0.6" ry="0.6"/>
	<path class="st24" d="M1137.8,562.1c-1.5,43.5-1.5,60-1.5,60"/>
	<path class="st24" d="M1106.6,591.2c43.5,1.5,60,1.5,60,1.5"/>
	<path class="st24" d="M1163.9,578.3c-39.7,20.5-54.5,28.7-54.5,28.7"/>
	<path class="st24" d="M1121.4,564.8c21.2,38.4,29.7,52.7,29.7,52.7"/>
	<path class="st24" d="M1153.2,566.5c-23.8,36.9-32.4,51.2-32.4,51.2"/>
	<path class="st24" d="M1109.9,576.5c38.2,23,53,31.3,53,31.3"/>
</g>
<g id="Frame">
	<g id="original">
		<path d="M1080.2,589.5c2.2,0.5,2.9,1.9,2.7,4c-0.2,2.1-0.3,4.2-0.5,6.4c0,3-0.1,5.5-2.7,7.2c-2.4,1.6-4.2,0.4-5.9-1.3
			c-1-2-1-7.1-1-10c0.1-2.1-0.3-4.2,1.1-6.1C1076,589.6,1078.1,589.5,1080.2,589.5z"/>
		<path d="M995.7,533.3c1.1-0.7,1.6-2.3,3.2-2.1c0.4,4.8,4.3,8.8,3.2,14c-0.7,0-1.5,0-2.2-0.1C999.4,540.9,996.1,537.7,995.7,533.3z
			"/>
	</g>
	<rect x="1128.3" y="291" class="st25" width="0" height="18"/>
	<g class="st26">
	</g>
	<path class="st0" d="M951,569.1c-2.5,3.8-5.1,7.7-5.4,12.5c-0.1,1.5,0.2,3.1-1.9,3.4c-4.6-0.5-3-3.5-1.8-5.7
		c0.9-1.7,1.7-2.8-0.6-3.7c0.7-2.4,3.6-2.4,4.5-4.6c0-1.1,0-2.3,1.1-3c4-1,5.8-3.1,5-5.7c1.7-5.5,2.8-10.9-1.9-15.7
		c-0.4-0.4-0.2-1.6-0.3-2.4c8.1,3.1,16.5,0.8,24.8,1.1c0.4,1.8,1.8,1.8,3.1,1.6c4.2-0.5,8.4,0.1,12.5-1.4c1.8-0.7,3.7-1,5.9,0.4
		c-5.6,4.3-13,0.8-18.3,4.9c2.8,2.8,6.1,1.5,8.8,2.9c11.1,6.2,13.9,2.6,12.7-7.8c0-0.3,0-0.7,0-1c0.7,0,1.4,0,2.2,0.1
		c4.7,4.8,8.8,9.9,9.6,17c0.8,7.5,10.4,13.1,17.2,10.1c3.5-1.6,4.5,1,4.1,3.1c-0.8,4.1,1.5,5.7,4.2,6.6c3.8,1.2,4.8,6,9,6.3
		c1.1,1.4,2.4,1.6,4.2,1.5c7.4-0.3,14.8-0.2,22.2-0.3c0,0.3,0,0.5,0.1,0.8c-1.4,1.8-1,4-1.1,6.1c-0.2,0.6-0.5,1.2-0.7,1.9
		c-10.1,1.5-20.1,2.2-30.3,1.5c-5.2-0.3-10.5-0.1-15.6,1.9c-4,1.6-8.4,0.4-12.6,0.7c-3.2,0.3-0.4-4.1-3.2-4.1
		c-0.2-0.6-0.5-1.2-0.7-1.8c0.2-1.2-0.4-1.9-1.4-2.3 M969.9,557.7 M1004.9,578.1c4.4,0.6,8.8,0.8,13,1.7c7.8,1.6,9.6,4.3,9.5,12.4
		c0,1.5,0,3,0,4.8c6.4-5.3,1.3-16.9-6.3-19.1c-5.4-1.6-11-1.5-16.3-2.9c-1.4-2.3-2.9-4.6-4.7-6.6 M1017.5,584
		c-1.8,0.1-3.5-0.1-5,0.7c-1.6,0.8-1.8,2.2-1.8,3.7c0,0.8-0.1,1.9,0.9,2.1c1.6,0.3,2.1-1.2,2.9-2.2c0.1-0.1,0.2-0.3,0.2-0.4
		c0.8-1.2,1.7-2,3.2-1.4c1.1,0.4,2.1,1.2,2.1,2.5c0.1,1.7-1.4,2-2.7,2.2c-2.3,0.4-4,2.3-3,4.1c0.9,1.7,3.5,1.2,5.2,0.1
		c3-2,4.7-4.7,3.7-8.4C1022.5,583.6,1019.7,584.2,1017.5,584z M1005.8,565.5c0.1-2.4-2-4-2.5-6.3c-0.2-1.1-0.2-3-2.1-2.8
		c-1.8,0.2-1.6,2.3-2.4,3.5c-0.7,1.2,4,7.6,5.5,7.7C1005.9,567.7,1005.6,566.4,1005.8,565.5z M959.7,552.1c-1.1,0-1.9,0.3-2.1,1.6
		c-0.1,0.9,0,1.8,1.1,1.8c1,0,1.8-0.8,2.1-1.8C961.3,552.7,960.6,552.3,959.7,552.1z"/>
	<path class="st0" d="M1127.6,598.9c6.1,0.7,3.9-9.1-3.4-6.1c11.4,6.8-12.5,5-14.2,1.1c-21.2-10.9,43.6-5.5,55.2-8.3
		c4.2,0.2,2-2.9,2.5-4.6c4.3-2.6,14.4,2,20.9-0.7c16.1-0.3,0.1,14.6-8.6,10.8c-4.7-1.4-6.2,5.5-10.3,5c1-7.9-11.6-6.5-9.3-1.3
		c-5.2,2.7-11.4-0.4-17.5,2.9 M1142.6,599.8 M1137.8,593.8c-1.1,0.4-3.5-0.6-3.3,2.1C1135.3,604.2,1146,593.6,1137.8,593.8z"/>
	<path class="st0" d="M1082.8,592.4c-0.1-1-0.2-2.1-0.2-3.1c6.8,0.1,13.5-1.4,20.3-0.9c0,0.6,0.1,1.1,0.1,1.7
		c-2,3.7-3.4,7.4-0.4,11.2c0.2,1.9,0.5,3.9,0.7,5.8c-1.9,0.5-4,1.6-4.1-1.9c-0.1-3.9-2.1-5.2-6.4-4.9c-2.7,0.2-5.4,0.5-8,0.8
		c0.1-1.8,0.2-3.6,0.4-5.4C1085.3,594,1084.7,592.8,1082.8,592.4z"/>
	<path id="seat" class="st4" d="M963.6,508.3c1.3-2,6.8-1.5,17.8-0.4c6.4,0.6,11.8,1.5,15.9,2.2c8.2,1.2,19.9-8.7,25.2,1.1
		c0.8,13.2-19.6,13.8-26.5,21.3c-3.9,0.2-10.7,0.1-17.5-3.6C968.5,523.6,961.1,512.3,963.6,508.3z"/>
	<path id="Basket_00000050662592896614585450000000914456045880651423_" class="st27" d="M977.9,538c2.8,13-20.3,8.3-28.3,6.8
		c-3.3-4.4-1.4-11.4-4.4-16.5c0.2-3.3,2.6-2.2,4.4-2.3c0.5,3.8,2.3-0.5,5.2-0.6c17.6-0.6,10.5-2.8,21.5-2l1.4,0.4
		c0.7-0.1,2.5,0.5,3.2,0.4"/>
	<ellipse class="st18" cx="976.8" cy="589.1" rx="32.1" ry="31.3"/>
</g>
<g id="Back_Wheel">
	<ellipse class="st22" cx="976" cy="590.7" rx="27.5" ry="26.6"/>
	<ellipse class="st23" cx="976.7" cy="591.3" rx="0.6" ry="0.6"/>
	<path class="st24" d="M977.4,560.8c-1.5,43.5-1.5,60-1.5,60"/>
	<path class="st24" d="M946.3,589.9c43.5,1.5,60,1.5,60,1.5"/>
	<path class="st24" d="M1003.5,577.1c-39.7,20.5-54.5,28.7-54.5,28.7"/>
	<path class="st24" d="M961,563.6c21.2,38.4,29.7,52.7,29.7,52.7"/>
	<path class="st24" d="M992.9,565.3c-23.8,36.9-32.4,51.2-32.4,51.2"/>
	<path class="st24" d="M949.5,575.2c38.2,23,53,31.3,53,31.3"/>
	<path class="st0" d="M971.9,592.7c-6.1-3.3-12.3-0.2-17.5-2.9c2.3-5.2-10.3-6.6-9.3,1.3c-4.1,0.6-5.5-6.4-10.3-5
		c-8.7,3.9-24.7-11.1-8.6-10.8c6.5,2.7,16.6-1.9,20.9,0.7c0.5,1.7-1.7,4.8,2.5,4.6c11.6,2.7,76.4-2.7,55.2,8.3
		c-1.7,4-25.5,5.7-14.2-1.1c-7.3-3-9.4,6.8-3.4,6.1 M972.1,594.9 M980.2,591c0.2-2.8-2.2-1.7-3.3-2.1
		C968.7,588.6,979.5,599.2,980.2,591z"/>
</g>
<g id="umbrella">
	<path class="st4" d="M1076.4,324.6c0.8,0.3,1.6,0.6,2.4,1c0.8,0.8,1.6,1.6,2.4,0c0,0,0.1,0,0.1,0c5.3,0.2,10.6,0,15.4,2.7
		c1.1,0.6,2.2,0.4,3.1-0.7c0.2,0,0.4,0,0.6,0.1c-0.5,1.2-0.4,2.3,0.7,3.1c9.1,6.3,10.6,15.9,11.1,25.8c0.2,3.3,0.3,6.6,3.9,8.9
		c-0.5-7.2-0.9-14.1-1.4-20.9c1.4,0,2.6,0.3,3.5,1.5c5.4,6.9,8.1,15.1,11.2,23.1c-2.6,0.6-5.6-1.7-8,1c3.7,1.2,8-0.1,11,3.1
		c-0.2,5.1-2.8,6.4-7.4,4.8c-5.8-2-10.7,2.5-16.2,2.6c-0.9-0.2-1.8-0.3-2.6-0.5c-1.4-2-0.4-4.3-0.8-6.1c-1.5-7.5-0.7-14.9-1-22.4
		c-0.4-8.7-6.5-17.3-14.7-19.7c-1.3-0.4-3.1-1.5-4,0c-1,1.7,0.7,2.6,2,3.4c0.8,0.5,1.9,1.1,2.2,1.9c2.2,6,7.1,10.8,7.3,17.9
		c0.2,8.8,3.8,17.3,3.2,26.3c-3.7,0.3-7.4-0.2-11.1-0.7c0.4-8.2,0.4-16.3-1.4-24.3c-2.4-10.7-4.1-21.7-12.6-29.8
		C1075.3,325.7,1075.5,324.9,1076.4,324.6z"/>
	<path class="st4" d="M1045.5,387.3c-4.2-1.9-9.1-3.1-10.3-8.7c3.9-2.9,4.2-7.4,5.1-11.7c1.8-8.4,0.3-17.2,2.9-25.6
		c1.4-4.7,4-7.3,7.8-10.1c6.9-5,14.5-5,22.3-4.7c-1.6,4.9-4.5,9.1-7,13.5c-4.8,8.5-7.5,17.7-8.3,27.3c-0.5,5.8-1.5,11.9,2.2,17.3
		c-3.6,0.4-7.2,2.2-11,0.9c0-7.8-0.1-15.5,0.1-23.3c0.2-7.5,3-14,7.4-20.1c3.3-4.6,7.8-8.1,12.1-12.3c-12.3,0-21.7,10.2-24.1,20.7
		c-2.2,9.7-1.1,19.5-1.5,29.2c-0.1,2.3,0.1,4.3,2,5.8C1045.3,386.2,1045.4,386.8,1045.5,387.3z"/>
	<path class="st0" d="M1132.4,373.2c-3.1-3.1-7.3-1.9-11-3.1c2.4-2.7,5.4-0.4,8-1c4.3,1.1,8.1,4,12.8,3.2c3.3,0.3,6.3-0.6,9.2-2.3
		c3.1-0.9,6.5-1,8.4-4.3c2.2,0.1,4.3,0.2,6.2-1.9c-6.1-3-10.4-7.9-14.8-12.8c-11.6-13-25-22.8-43.9-20.5l0,0c0.3-0.7,0.7-1.3,1-2
		c7.3-0.9,14.1,0.9,21.1,3.2c13.3,4.4,20.9,15.6,30.8,24.2c3.9,3.4,8.1,6.5,12.9,10.2c-4.2-0.1-6.6,4.4-10.9,2.1
		c-0.5-0.3-1.7,0.2-2.3,0.6C1151.3,374.5,1142.1,375.9,1132.4,373.2z"/>
	<path class="st4" d="M1035.9,369.6c-1.1-2-1.8-3.2-3.9-0.5c-2.1,2.7-3,5.4-2.9,8.6c-3.7-0.6-7.3,0-11,0.6c1.7-7.4,6.4-13,11.1-18.6
		c2.7-3.2,4.4-7.7,9.5-8.2C1038,357.5,1039,363.9,1035.9,369.6z"/>
	<path class="st0" d="M1035.9,369.6c3-5.7,2-12.1,2.7-18.1c0.2-2.3,0.4-4.6,0.7-6.9c3.5-9.6,3.5-9.6-6.2-8c-0.3,0.1-0.7,0-1,0
		c-0.7-0.6-1.3-1.2-2-1.8c3.9-2.1,8.1-0.8,12.2-1.4c1.3,1.8,1.6,0.4,2.1-0.6c7.4-5.3,14.8-10.4,24.7-8.5c0.4,0.1,0.9-0.4,1.3-0.6
		c2,3.1,3.9-1,5.8,0c0.1,0.4,0.1,0.7,0.2,1.1c-0.9,0.3-1.1,1.1-1.2,2c-0.7,0-1.3,0-2,0.1c-7.8-0.2-15.3-0.3-22.3,4.7
		c-3.8,2.8-6.4,5.4-7.8,10.1c-2.5,8.4-1.1,17.2-2.9,25.6c-0.9,4.2-1.2,8.7-5.1,11.7C1035.4,375.6,1035.7,372.6,1035.9,369.6z"/>
	<path class="st0" d="M1030.1,334.7c0.7,0.6,1.3,1.2,2,1.8c-12.4,3.3-21.9,11.4-31.5,19.2c-5.6,4.6-10,10.5-16.5,14.2
		c-0.1-0.5-0.2-1.1-0.3-1.6c7.7-8.6,16.7-16,25.7-23.1C1015.5,340.5,1022.5,336.6,1030.1,334.7z"/>
	<path class="st0" d="M983.9,368.3c0.1,0.5,0.2,1.1,0.3,1.6c-2.9,3-1.9,5.5,1,7.7c2.7,2.1,5.6,3.5,9.1,3.7c2.8,2.1,6,0.7,9,1.2
		c5.6,0.7,10.2-2,14.9-4.3c3.6-0.5,7.3-1.2,11-0.6c-1.6,2-3.3,3.9-4.9,5.9c0.9-2.4,0.7-4.1-2.6-3.2c-2.2,0.6-4.3,1.4-6.5,2.1
		c-4.3,0.9-8.5,1.8-12.9,2.1c-7.1,0.5-13.3-1.3-19.2-5C977.4,376,977.7,371.5,983.9,368.3z"/>
	<path class="st0" d="M1045.5,387.3c-0.1-0.6-0.1-1.2-0.2-1.7c1.3,0,2.6-0.1,4-0.1c3.8,1.3,7.3-0.4,11-0.9c3.1,0,5.6-1.6,8.1-3.1
		c4-0.8,7.6-3.5,12-3c2.8,1.7,5.9,2.1,9,2.1c3.7,0.5,7.3,1,11.1,0.7c2.1,0.4,4-0.2,5.8-1.3c0.9,0.2,1.8,0.3,2.6,0.5
		c-6.3,4.4-13.4,4.1-20.3,2.4c-7.4-1.9-14.4-1.1-21.3,1.6C1060.1,387.4,1053,389,1045.5,387.3z"/>
	<path class="st0" d="M1114.6,344.5c0.5,6.8,0.9,13.6,1.4,20.9c-3.6-2.3-3.8-5.6-3.9-8.9c-0.5-10-2-19.5-11.1-25.8
		c-1.2-0.8-1.2-1.9-0.7-3.1c0.6,0,1.2,0,1.8,0c0.8,2.5,2.9,2.9,5.2,2.9l0,0c-0.3,3.3,2.4,4.9,3.9,7.2
		C1112.3,340,1113.4,342.2,1114.6,344.5z"/>
	<path d="M1076.2,323.5c-1.9-1-3.9,3.2-5.8,0c-0.3-1.8-0.9-3.7,0.8-5.1c1.4-1.1,3-1.2,4.5-0.1
		C1077.8,319.9,1077.3,321.7,1076.2,323.5z"/>
	<path class="st0" d="M1099.7,327.5c-0.8,1.1-1.9,1.4-3.1,0.7c-4.8-2.8-10.2-2.5-15.4-2.7C1086,322.3,1094.1,323.2,1099.7,327.5z"/>
	<path class="st0" d="M1107.2,330.6c-2.3,0-4.3-0.4-5.2-2.9c2.1,0.2,4.5-1.7,6.2,1C1107.9,329.3,1107.6,329.9,1107.2,330.6z"/>
	<path class="st28" d="M1044.4,332.7c-0.4,1-0.8,2.4-2.1,0.6C1043,333.1,1043.7,332.9,1044.4,332.7z"/>
	<path class="st0" d="M1081.2,325.6c-0.8,1.5-1.6,0.8-2.4,0C1079.6,325.5,1080.4,325.6,1081.2,325.6z"/>
	<path class="st18" d="M1068.3,381.6c-2.5,1.5-5,3.1-8.1,3.1c-3.7-5.4-2.7-11.5-2.2-17.3c0.8-9.6,3.5-18.8,8.3-27.3
		c2.5-4.4,5.4-8.6,7-13.5c0.7,0,1.3,0,2-0.1c8.5,8.1,10.2,19.1,12.6,29.8c1.8,8,1.8,16.2,1.4,24.3c-3.2,0-6.2-0.4-9-2.1
		c2.3-8-0.4-15.8-1-23.6c-0.6-7.7-0.3-15.7-4.1-22.8c-3,10.1-6,20-7,30.4C1067.5,368.9,1066.7,375.2,1068.3,381.6z"/>
	<path class="st18" d="M1106.1,380.1c-1.8,1.1-3.7,1.6-5.8,1.3c0.6-9-3-17.5-3.2-26.3c-0.2-7.1-5-11.9-7.3-17.9
		c-0.3-0.8-1.4-1.4-2.2-1.9c-1.3-0.8-3-1.7-2-3.4c0.9-1.6,2.8-0.4,4,0c8.2,2.4,14.3,11.1,14.7,19.7c0.4,7.4-0.5,14.9,1,22.4
		C1105.7,375.8,1104.7,378.1,1106.1,380.1z"/>
	<path class="st18" d="M1114.6,344.5c-1.2-2.3-2.4-4.5-3.5-6.8c5.4-0.2,8.2,4.2,10.9,7.4c7.2,8.7,13.5,18,20.2,27.1
		c-4.7,0.8-8.6-2.1-12.8-3.2c-3-8-5.8-16.2-11.2-23.1C1117.2,344.8,1116,344.5,1114.6,344.5z"/>
	<path class="st18" d="M1049.2,385.5c-1.3,0-2.6,0.1-4,0.1c-2-1.5-2.1-3.5-2-5.8c0.3-9.8-0.7-19.5,1.5-29.2
		c2.4-10.6,11.8-20.7,24.1-20.7c-4.3,4.2-8.8,7.7-12.1,12.3c-4.4,6.1-7.3,12.6-7.4,20.1C1049.1,370,1049.2,377.8,1049.2,385.5z"/>
	<path class="st4" d="M1142.1,372.3c-6.7-9.1-13-18.4-20.2-27.1c-2.7-3.2-5.5-7.6-10.9-7.4c-1.4-2.3-4.2-3.9-3.9-7.2
		c18.9-2.4,32.3,7.4,43.9,20.5c4.4,4.9,8.7,9.8,14.8,12.8c-1.9,2.1-4.1,2-6.2,1.9c-5.9-2.9-7.9-9.5-12.9-13.5
		c-5.7-4.7-10.6-10.5-17.7-13c-3.4-1.2-5.5-5.5-10-4.3c8.5,8.5,18.3,15.8,25,25.7c2.2,3.3,6.7,4.9,7.2,9.4
		C1148.5,371.7,1145.5,372.6,1142.1,372.3z"/>
	<path class="st18" d="M1151.3,370c-0.5-4.5-4.9-6.1-7.2-9.4c-6.7-9.9-16.5-17.2-25-25.7c4.5-1.3,6.6,3.1,10,4.3
		c7.2,2.6,12,8.4,17.7,13c4.9,4,6.9,10.6,12.9,13.5C1157.9,369,1154.4,369.1,1151.3,370z"/>
	<path class="st18" d="M1018.2,378.2c-4.7,2.3-9.3,5-14.9,4.3c2.6-2.5,4.6-5.5,6.7-8.3c8.4-11.2,17.8-21.5,29.4-29.7
		c-0.2,2.3-0.4,4.6-0.7,6.9c-5.1,0.5-6.8,5.1-9.5,8.2C1024.6,365.2,1019.9,370.9,1018.2,378.2z"/>
	<path class="st4" d="M1039.3,344.5c-11.6,8.1-20.9,18.5-29.4,29.7c-2.2,2.9-4.1,5.9-6.7,8.3c-3-0.5-6.2,0.9-9-1.2
		c2.1-9.2,8.7-15.6,15.4-21.2c8.1-6.8,16.1-14,25.5-19.2c0.9-0.5,2.3-1.5,1.4-2.7c-0.9-1.2-2.2-0.2-3.1,0.4
		c-3.2,2.1-6.3,4.3-9.3,6.6c-4.8,3.5-10.4,5.9-15.1,9.4c-8.9,6.6-16.5,14.7-23.8,23c-2.8-2.3-3.9-4.7-1-7.7
		c6.4-3.6,10.9-9.6,16.4-14.2c9.5-7.9,19.1-16,31.5-19.2c0.3,0,0.7,0.1,1,0C1042.8,334.9,1042.8,334.9,1039.3,344.5z"/>
	<path class="st18" d="M985.2,377.6c7.3-8.3,15-16.4,23.8-23c4.7-3.5,10.3-5.8,15.1-9.4c3.1-2.3,6.2-4.5,9.3-6.6
		c0.9-0.6,2.2-1.6,3.1-0.4c0.9,1.3-0.5,2.2-1.4,2.7c-9.4,5.2-17.4,12.4-25.5,19.2c-6.7,5.6-13.2,12-15.4,21.2
		C990.8,381.1,987.9,379.7,985.2,377.6z"/>
	<path class="st4" d="M1068.3,381.6c-1.6-6.4-0.7-12.7-0.1-19.1c1-10.4,4-20.3,7-30.4c3.8,7.2,3.5,15.1,4.1,22.8
		c0.6,7.9,3.2,15.6,1,23.6C1075.9,378.1,1072.3,380.8,1068.3,381.6z"/>
</g>
</svg>
